<svg fill="none" viewBox="0 0 72 572">
  <path fill="#93EA20" d="M7 483.11a3.5 3.5 0 1 0-7 0 3.5 3.5 0 0 0 7 0ZM7 456.46a3.5 3.5 0 1 0-7 0 3.5 3.5 0 0 0 7 0ZM7 429.8a3.5 3.5 0 1 0-7 0 3.5 3.5 0 0 0 7 0ZM7 403.15a3.5 3.5 0 1 0-7 0 3.5 3.5 0 0 0 7 0ZM7 376.5a3.5 3.5 0 1 0-7 0 3.5 3.5 0 0 0 7 0ZM7 349.85a3.5 3.5 0 1 0-7 0 3.5 3.5 0 0 0 7 0ZM7 323.2a3.5 3.5 0 1 0-7 0 3.5 3.5 0 0 0 7 0ZM7 296.54a3.5 3.5 0 1 0-7 0 3.5 3.5 0 0 0 7 0ZM7 269.89a3.5 3.5 0 1 0-7 0 3.5 3.5 0 0 0 7 0ZM7 243.23a3.5 3.5 0 1 0-7 0 3.5 3.5 0 0 0 7 0ZM7 216.58a3.5 3.5 0 1 0-7 0 3.5 3.5 0 0 0 7 0ZM7 189.93a3.5 3.5 0 1 0-7 0 3.5 3.5 0 0 0 7 0ZM7 163.28a3.5 3.5 0 1 0-7 0 3.5 3.5 0 0 0 7 0ZM7 136.62a3.5 3.5 0 1 0-7 0 3.5 3.5 0 0 0 7 0ZM7 110.15a3.5 3.5 0 1 0-7 0 3.5 3.5 0 0 0 7 0ZM33.81 483.11a3.5 3.5 0 1 0-7 0 3.5 3.5 0 0 0 7 0ZM33.81 456.46a3.5 3.5 0 1 0-7 0 3.5 3.5 0 0 0 7 0ZM33.81 429.8a3.5 3.5 0 1 0-7 0 3.5 3.5 0 0 0 7 0ZM33.81 403.15a3.5 3.5 0 1 0-7 0 3.5 3.5 0 0 0 7 0ZM33.81 376.5a3.5 3.5 0 1 0-7 0 3.5 3.5 0 0 0 7 0ZM33.81 349.85a3.5 3.5 0 1 0-7 0 3.5 3.5 0 0 0 7 0ZM33.81 323.2a3.5 3.5 0 1 0-7 0 3.5 3.5 0 0 0 7 0ZM33.81 296.54a3.5 3.5 0 1 0-7 0 3.5 3.5 0 0 0 7 0ZM33.81 269.89a3.5 3.5 0 1 0-7 0 3.5 3.5 0 0 0 7 0ZM33.81 243.23a3.5 3.5 0 1 0-7 0 3.5 3.5 0 0 0 7 0ZM33.81 216.58a3.5 3.5 0 1 0-7 0 3.5 3.5 0 0 0 7 0ZM33.81 189.93a3.5 3.5 0 1 0-7 0 3.5 3.5 0 0 0 7 0ZM33.81 163.28a3.5 3.5 0 1 0-7 0 3.5 3.5 0 0 0 7 0ZM33.81 136.62a3.5 3.5 0 1 0-7 0 3.5 3.5 0 0 0 7 0ZM33.81 110.15a3.5 3.5 0 1 0-7 0 3.5 3.5 0 0 0 7 0ZM60.45 483.11a3.5 3.5 0 1 0-7 0 3.5 3.5 0 0 0 7 0ZM60.45 456.46a3.5 3.5 0 1 0-7 0 3.5 3.5 0 0 0 7 0ZM60.45 429.8a3.5 3.5 0 1 0-7 0 3.5 3.5 0 0 0 7 0ZM60.45 403.15a3.5 3.5 0 1 0-7 0 3.5 3.5 0 0 0 7 0ZM60.45 376.5a3.5 3.5 0 1 0-7 0 3.5 3.5 0 0 0 7 0ZM60.45 349.85a3.5 3.5 0 1 0-7 0 3.5 3.5 0 0 0 7 0ZM60.45 323.2a3.5 3.5 0 1 0-7 0 3.5 3.5 0 0 0 7 0ZM60.45 296.54a3.5 3.5 0 1 0-7 0 3.5 3.5 0 0 0 7 0ZM60.45 269.89a3.5 3.5 0 1 0-7 0 3.5 3.5 0 0 0 7 0ZM60.45 243.23a3.5 3.5 0 1 0-7 0 3.5 3.5 0 0 0 7 0ZM60.45 216.58a3.5 3.5 0 1 0-7 0 3.5 3.5 0 0 0 7 0ZM60.45 189.93a3.5 3.5 0 1 0-7 0 3.5 3.5 0 0 0 7 0ZM60.45 163.28a3.5 3.5 0 1 0-7 0 3.5 3.5 0 0 0 7 0ZM60.45 136.62a3.5 3.5 0 1 0-7 0 3.5 3.5 0 0 0 7 0ZM60.45 110.15a3.5 3.5 0 1 0-7 0 3.5 3.5 0 0 0 7 0ZM87.26 483.11a3.5 3.5 0 1 0-7 0 3.5 3.5 0 0 0 7 0ZM87.26 456.46a3.5 3.5 0 1 0-7 0 3.5 3.5 0 0 0 7 0ZM87.26 429.8a3.5 3.5 0 1 0-7 0 3.5 3.5 0 0 0 7 0ZM87.26 403.15a3.5 3.5 0 1 0-7 0 3.5 3.5 0 0 0 7 0ZM87.26 376.5a3.5 3.5 0 1 0-7 0 3.5 3.5 0 0 0 7 0ZM87.26 349.85a3.5 3.5 0 1 0-7 0 3.5 3.5 0 0 0 7 0ZM87.26 323.2a3.5 3.5 0 1 0-7 0 3.5 3.5 0 0 0 7 0ZM87.26 296.54a3.5 3.5 0 1 0-7 0 3.5 3.5 0 0 0 7 0ZM87.26 269.89a3.5 3.5 0 1 0-7 0 3.5 3.5 0 0 0 7 0ZM87.26 243.23a3.5 3.5 0 1 0-7 0 3.5 3.5 0 0 0 7 0ZM87.26 216.58a3.5 3.5 0 1 0-7 0 3.5 3.5 0 0 0 7 0ZM87.26 189.93a3.5 3.5 0 1 0-7 0 3.5 3.5 0 0 0 7 0ZM87.26 163.28a3.5 3.5 0 1 0-7 0 3.5 3.5 0 0 0 7 0ZM87.26 136.62a3.5 3.5 0 1 0-7 0 3.5 3.5 0 0 0 7 0ZM87.26 110.15a3.5 3.5 0 1 0-7 0 3.5 3.5 0 0 0 7 0ZM113.9 483.11a3.5 3.5 0 1 0-7 0 3.5 3.5 0 0 0 7 0ZM113.9 456.46a3.5 3.5 0 1 0-7 0 3.5 3.5 0 0 0 7 0ZM113.9 429.8a3.5 3.5 0 1 0-7 0 3.5 3.5 0 0 0 7 0ZM113.9 403.15a3.5 3.5 0 1 0-7 0 3.5 3.5 0 0 0 7 0ZM113.9 376.5a3.5 3.5 0 1 0-7 0 3.5 3.5 0 0 0 7 0ZM113.9 349.85a3.5 3.5 0 1 0-7 0 3.5 3.5 0 0 0 7 0ZM113.9 323.2a3.5 3.5 0 1 0-7 0 3.5 3.5 0 0 0 7 0ZM113.9 296.54a3.5 3.5 0 1 0-7 0 3.5 3.5 0 0 0 7 0ZM113.9 269.89a3.5 3.5 0 1 0-7 0 3.5 3.5 0 0 0 7 0ZM113.9 243.23a3.5 3.5 0 1 0-7 0 3.5 3.5 0 0 0 7 0ZM113.9 216.58a3.5 3.5 0 1 0-7 0 3.5 3.5 0 0 0 7 0ZM113.9 189.93a3.5 3.5 0 1 0-7 0 3.5 3.5 0 0 0 7 0ZM113.9 163.28a3.5 3.5 0 1 0-7 0 3.5 3.5 0 0 0 7 0ZM113.9 136.62a3.5 3.5 0 1 0-7 0 3.5 3.5 0 0 0 7 0ZM113.9 110.15a3.5 3.5 0 1 0-7 0 3.5 3.5 0 0 0 7 0ZM140.7 483.11a3.5 3.5 0 1 0-7 0 3.5 3.5 0 0 0 7 0ZM140.7 456.46a3.5 3.5 0 1 0-7 0 3.5 3.5 0 0 0 7 0ZM140.7 429.8a3.5 3.5 0 1 0-7 0 3.5 3.5 0 0 0 7 0ZM140.7 403.15a3.5 3.5 0 1 0-7 0 3.5 3.5 0 0 0 7 0ZM140.7 376.5a3.5 3.5 0 1 0-7 0 3.5 3.5 0 0 0 7 0ZM140.7 349.85a3.5 3.5 0 1 0-7 0 3.5 3.5 0 0 0 7 0ZM140.7 323.2a3.5 3.5 0 1 0-7 0 3.5 3.5 0 0 0 7 0ZM140.7 296.54a3.5 3.5 0 1 0-7 0 3.5 3.5 0 0 0 7 0ZM140.7 269.89a3.5 3.5 0 1 0-7 0 3.5 3.5 0 0 0 7 0ZM140.7 243.23a3.5 3.5 0 1 0-7 0 3.5 3.5 0 0 0 7 0ZM140.7 216.58a3.5 3.5 0 1 0-7 0 3.5 3.5 0 0 0 7 0ZM140.7 189.93a3.5 3.5 0 1 0-7 0 3.5 3.5 0 0 0 7 0ZM140.7 163.28a3.5 3.5 0 1 0-7 0 3.5 3.5 0 0 0 7 0ZM140.7 136.62a3.5 3.5 0 1 0-7 0 3.5 3.5 0 0 0 7 0ZM140.7 110.15a3.5 3.5 0 1 0-7 0 3.5 3.5 0 0 0 7 0ZM167.34 483.11a3.5 3.5 0 1 0-7 0 3.5 3.5 0 0 0 7 0ZM167.34 456.46a3.5 3.5 0 1 0-7 0 3.5 3.5 0 0 0 7 0ZM167.34 429.8a3.5 3.5 0 1 0-7 0 3.5 3.5 0 0 0 7 0ZM167.34 403.15a3.5 3.5 0 1 0-7 0 3.5 3.5 0 0 0 7 0ZM167.34 376.5a3.5 3.5 0 1 0-7 0 3.5 3.5 0 0 0 7 0ZM167.34 349.85a3.5 3.5 0 1 0-7 0 3.5 3.5 0 0 0 7 0ZM167.34 323.2a3.5 3.5 0 1 0-7 0 3.5 3.5 0 0 0 7 0ZM167.34 296.54a3.5 3.5 0 1 0-7 0 3.5 3.5 0 0 0 7 0ZM167.34 269.89a3.5 3.5 0 1 0-7 0 3.5 3.5 0 0 0 7 0ZM167.34 243.23a3.5 3.5 0 1 0-7 0 3.5 3.5 0 0 0 7 0ZM167.34 216.58a3.5 3.5 0 1 0-7 0 3.5 3.5 0 0 0 7 0ZM167.34 189.93a3.5 3.5 0 1 0-7 0 3.5 3.5 0 0 0 7 0ZM167.34 163.28a3.5 3.5 0 1 0-7 0 3.5 3.5 0 0 0 7 0ZM167.34 136.62a3.5 3.5 0 1 0-7 0 3.5 3.5 0 0 0 7 0ZM167.34 110.15a3.5 3.5 0 1 0-7 0 3.5 3.5 0 0 0 7 0ZM194.15 483.11a3.5 3.5 0 1 0-7 0 3.5 3.5 0 0 0 7 0ZM194.15 456.46a3.5 3.5 0 1 0-7 0 3.5 3.5 0 0 0 7 0ZM194.15 429.8a3.5 3.5 0 1 0-7 0 3.5 3.5 0 0 0 7 0ZM194.15 403.15a3.5 3.5 0 1 0-7 0 3.5 3.5 0 0 0 7 0ZM194.15 376.5a3.5 3.5 0 1 0-7 0 3.5 3.5 0 0 0 7 0ZM194.15 349.85a3.5 3.5 0 1 0-7 0 3.5 3.5 0 0 0 7 0ZM194.15 323.2a3.5 3.5 0 1 0-7 0 3.5 3.5 0 0 0 7 0ZM194.15 296.54a3.5 3.5 0 1 0-7 0 3.5 3.5 0 0 0 7 0ZM194.15 269.89a3.5 3.5 0 1 0-7 0 3.5 3.5 0 0 0 7 0ZM194.15 243.23a3.5 3.5 0 1 0-7 0 3.5 3.5 0 0 0 7 0ZM194.15 216.58a3.5 3.5 0 1 0-7 0 3.5 3.5 0 0 0 7 0ZM194.15 189.93a3.5 3.5 0 1 0-7 0 3.5 3.5 0 0 0 7 0ZM194.15 163.28a3.5 3.5 0 1 0-7 0 3.5 3.5 0 0 0 7 0ZM194.15 136.62a3.5 3.5 0 1 0-7 0 3.5 3.5 0 0 0 7 0ZM194.15 110.15a3.5 3.5 0 1 0-7 0 3.5 3.5 0 0 0 7 0ZM220.79 483.11a3.5 3.5 0 1 0-7 0 3.5 3.5 0 0 0 7 0ZM220.79 456.46a3.5 3.5 0 1 0-7 0 3.5 3.5 0 0 0 7 0ZM220.79 429.8a3.5 3.5 0 1 0-7 0 3.5 3.5 0 0 0 7 0ZM220.79 403.15a3.5 3.5 0 1 0-7 0 3.5 3.5 0 0 0 7 0ZM220.79 376.5a3.5 3.5 0 1 0-7 0 3.5 3.5 0 0 0 7 0ZM220.79 349.85a3.5 3.5 0 1 0-7 0 3.5 3.5 0 0 0 7 0ZM220.79 323.2a3.5 3.5 0 1 0-7 0 3.5 3.5 0 0 0 7 0ZM220.79 296.54a3.5 3.5 0 1 0-7 0 3.5 3.5 0 0 0 7 0ZM220.79 269.89a3.5 3.5 0 1 0-7 0 3.5 3.5 0 0 0 7 0ZM220.79 243.23a3.5 3.5 0 1 0-7 0 3.5 3.5 0 0 0 7 0ZM220.79 216.58a3.5 3.5 0 1 0-7 0 3.5 3.5 0 0 0 7 0ZM220.79 189.93a3.5 3.5 0 1 0-7 0 3.5 3.5 0 0 0 7 0ZM220.79 163.28a3.5 3.5 0 1 0-7 0 3.5 3.5 0 0 0 7 0ZM220.79 136.62a3.5 3.5 0 1 0-7 0 3.5 3.5 0 0 0 7 0ZM220.79 110.15a3.5 3.5 0 1 0-7 0 3.5 3.5 0 0 0 7 0ZM247.6 483.11a3.5 3.5 0 1 0-7 0 3.5 3.5 0 0 0 7 0ZM247.6 456.46a3.5 3.5 0 1 0-7 0 3.5 3.5 0 0 0 7 0ZM247.6 429.8a3.5 3.5 0 1 0-7 0 3.5 3.5 0 0 0 7 0ZM247.6 403.15a3.5 3.5 0 1 0-7 0 3.5 3.5 0 0 0 7 0ZM247.6 376.5a3.5 3.5 0 1 0-7 0 3.5 3.5 0 0 0 7 0ZM247.6 349.85a3.5 3.5 0 1 0-7 0 3.5 3.5 0 0 0 7 0ZM247.6 323.2a3.5 3.5 0 1 0-7 0 3.5 3.5 0 0 0 7 0ZM247.6 296.54a3.5 3.5 0 1 0-7 0 3.5 3.5 0 0 0 7 0ZM247.6 269.89a3.5 3.5 0 1 0-7 0 3.5 3.5 0 0 0 7 0ZM247.6 243.23a3.5 3.5 0 1 0-7 0 3.5 3.5 0 0 0 7 0ZM247.6 216.58a3.5 3.5 0 1 0-7 0 3.5 3.5 0 0 0 7 0ZM247.6 189.93a3.5 3.5 0 1 0-7 0 3.5 3.5 0 0 0 7 0ZM247.6 163.28a3.5 3.5 0 1 0-7 0 3.5 3.5 0 0 0 7 0ZM247.6 136.62a3.5 3.5 0 1 0-7 0 3.5 3.5 0 0 0 7 0ZM247.6 110.15a3.5 3.5 0 1 0-7 0 3.5 3.5 0 0 0 7 0ZM274.41 483.11a3.5 3.5 0 1 0-7 0 3.5 3.5 0 0 0 7 0ZM274.41 456.46a3.5 3.5 0 1 0-7 0 3.5 3.5 0 0 0 7 0ZM274.41 429.8a3.5 3.5 0 1 0-7 0 3.5 3.5 0 0 0 7 0ZM274.41 403.15a3.5 3.5 0 1 0-7 0 3.5 3.5 0 0 0 7 0ZM274.41 376.5a3.5 3.5 0 1 0-7 0 3.5 3.5 0 0 0 7 0ZM274.41 349.85a3.5 3.5 0 1 0-7 0 3.5 3.5 0 0 0 7 0ZM274.41 323.2a3.5 3.5 0 1 0-7 0 3.5 3.5 0 0 0 7 0ZM274.41 296.54a3.5 3.5 0 1 0-7 0 3.5 3.5 0 0 0 7 0ZM274.41 269.89a3.5 3.5 0 1 0-7 0 3.5 3.5 0 0 0 7 0ZM274.41 243.23a3.5 3.5 0 1 0-7 0 3.5 3.5 0 0 0 7 0ZM274.41 216.58a3.5 3.5 0 1 0-7 0 3.5 3.5 0 0 0 7 0ZM274.41 189.93a3.5 3.5 0 1 0-7 0 3.5 3.5 0 0 0 7 0ZM274.41 163.28a3.5 3.5 0 1 0-7 0 3.5 3.5 0 0 0 7 0ZM274.41 136.62a3.5 3.5 0 1 0-7 0 3.5 3.5 0 0 0 7 0ZM274.41 110.15a3.5 3.5 0 1 0-7 0 3.5 3.5 0 0 0 7 0ZM301.05 483.11a3.5 3.5 0 1 0-7 0 3.5 3.5 0 0 0 7 0ZM301.05 456.46a3.5 3.5 0 1 0-7 0 3.5 3.5 0 0 0 7 0ZM301.05 429.8a3.5 3.5 0 1 0-7 0 3.5 3.5 0 0 0 7 0ZM301.05 403.15a3.5 3.5 0 1 0-7 0 3.5 3.5 0 0 0 7 0ZM301.05 376.5a3.5 3.5 0 1 0-7 0 3.5 3.5 0 0 0 7 0ZM301.05 349.85a3.5 3.5 0 1 0-7 0 3.5 3.5 0 0 0 7 0ZM301.05 323.2a3.5 3.5 0 1 0-7 0 3.5 3.5 0 0 0 7 0ZM301.05 296.54a3.5 3.5 0 1 0-7 0 3.5 3.5 0 0 0 7 0ZM301.05 269.89a3.5 3.5 0 1 0-7 0 3.5 3.5 0 0 0 7 0ZM301.05 243.23a3.5 3.5 0 1 0-7 0 3.5 3.5 0 0 0 7 0ZM301.05 216.58a3.5 3.5 0 1 0-7 0 3.5 3.5 0 0 0 7 0ZM301.05 189.93a3.5 3.5 0 1 0-7 0 3.5 3.5 0 0 0 7 0ZM301.05 163.28a3.5 3.5 0 1 0-7 0 3.5 3.5 0 0 0 7 0ZM301.05 136.62a3.5 3.5 0 1 0-7 0 3.5 3.5 0 0 0 7 0ZM301.05 110.15a3.5 3.5 0 1 0-7 0 3.5 3.5 0 0 0 7 0ZM327.86 483.11a3.5 3.5 0 1 0-7 0 3.5 3.5 0 0 0 7 0ZM327.86 456.46a3.5 3.5 0 1 0-7 0 3.5 3.5 0 0 0 7 0ZM327.86 429.8a3.5 3.5 0 1 0-7 0 3.5 3.5 0 0 0 7 0ZM327.86 403.15a3.5 3.5 0 1 0-7 0 3.5 3.5 0 0 0 7 0ZM327.86 376.5a3.5 3.5 0 1 0-7 0 3.5 3.5 0 0 0 7 0ZM327.86 349.85a3.5 3.5 0 1 0-7 0 3.5 3.5 0 0 0 7 0ZM327.86 323.2a3.5 3.5 0 1 0-7 0 3.5 3.5 0 0 0 7 0ZM327.86 296.54a3.5 3.5 0 1 0-7 0 3.5 3.5 0 0 0 7 0ZM327.86 269.89a3.5 3.5 0 1 0-7 0 3.5 3.5 0 0 0 7 0ZM327.86 243.23a3.5 3.5 0 1 0-7 0 3.5 3.5 0 0 0 7 0ZM327.86 216.58a3.5 3.5 0 1 0-7 0 3.5 3.5 0 0 0 7 0ZM327.86 189.93a3.5 3.5 0 1 0-7 0 3.5 3.5 0 0 0 7 0ZM327.86 163.28a3.5 3.5 0 1 0-7 0 3.5 3.5 0 0 0 7 0ZM327.86 136.62a3.5 3.5 0 1 0-7 0 3.5 3.5 0 0 0 7 0ZM327.86 110.15a3.5 3.5 0 1 0-7 0 3.5 3.5 0 0 0 7 0ZM354.5 483.11a3.5 3.5 0 1 0-7 0 3.5 3.5 0 0 0 7 0ZM354.5 456.46a3.5 3.5 0 1 0-7 0 3.5 3.5 0 0 0 7 0ZM354.5 429.8a3.5 3.5 0 1 0-7 0 3.5 3.5 0 0 0 7 0ZM354.5 403.15a3.5 3.5 0 1 0-7 0 3.5 3.5 0 0 0 7 0ZM354.5 376.5a3.5 3.5 0 1 0-7 0 3.5 3.5 0 0 0 7 0ZM354.5 349.85a3.5 3.5 0 1 0-7 0 3.5 3.5 0 0 0 7 0ZM354.5 323.2a3.5 3.5 0 1 0-7 0 3.5 3.5 0 0 0 7 0ZM354.5 296.54a3.5 3.5 0 1 0-7 0 3.5 3.5 0 0 0 7 0ZM354.5 269.89a3.5 3.5 0 1 0-7 0 3.5 3.5 0 0 0 7 0ZM354.5 243.23a3.5 3.5 0 1 0-7 0 3.5 3.5 0 0 0 7 0ZM354.5 216.58a3.5 3.5 0 1 0-7 0 3.5 3.5 0 0 0 7 0ZM354.5 189.93a3.5 3.5 0 1 0-7 0 3.5 3.5 0 0 0 7 0ZM354.5 163.28a3.5 3.5 0 1 0-7 0 3.5 3.5 0 0 0 7 0ZM354.5 136.62a3.5 3.5 0 1 0-7 0 3.5 3.5 0 0 0 7 0ZM354.5 110.15a3.5 3.5 0 1 0-7 0 3.5 3.5 0 0 0 7 0ZM381.3 483.11a3.5 3.5 0 1 0-7 0 3.5 3.5 0 0 0 7 0ZM381.3 456.46a3.5 3.5 0 1 0-7 0 3.5 3.5 0 0 0 7 0ZM381.3 429.8a3.5 3.5 0 1 0-7 0 3.5 3.5 0 0 0 7 0ZM381.3 403.15a3.5 3.5 0 1 0-7 0 3.5 3.5 0 0 0 7 0ZM381.3 376.5a3.5 3.5 0 1 0-7 0 3.5 3.5 0 0 0 7 0ZM381.3 349.85a3.5 3.5 0 1 0-7 0 3.5 3.5 0 0 0 7 0ZM381.3 323.2a3.5 3.5 0 1 0-7 0 3.5 3.5 0 0 0 7 0ZM381.3 296.54a3.5 3.5 0 1 0-7 0 3.5 3.5 0 0 0 7 0ZM381.3 269.89a3.5 3.5 0 1 0-7 0 3.5 3.5 0 0 0 7 0ZM381.3 243.23a3.5 3.5 0 1 0-7 0 3.5 3.5 0 0 0 7 0ZM381.3 216.58a3.5 3.5 0 1 0-7 0 3.5 3.5 0 0 0 7 0ZM381.3 189.93a3.5 3.5 0 1 0-7 0 3.5 3.5 0 0 0 7 0ZM381.3 163.28a3.5 3.5 0 1 0-7 0 3.5 3.5 0 0 0 7 0ZM381.3 136.62a3.5 3.5 0 1 0-7 0 3.5 3.5 0 0 0 7 0ZM381.3 110.15a3.5 3.5 0 1 0-7 0 3.5 3.5 0 0 0 7 0Z"/>
  <path fill="#93EA20" d="M7 110.11a3.5 3.5 0 1 0-7 0 3.5 3.5 0 0 0 7 0ZM7 83.46a3.5 3.5 0 1 0-7 0 3.5 3.5 0 0 0 7 0ZM7 56.8a3.5 3.5 0 1 0-7 0 3.5 3.5 0 0 0 7 0ZM7 30.15a3.5 3.5 0 1 0-7 0 3.5 3.5 0 0 0 7 0ZM7 3.5a3.5 3.5 0 1 0-7 0 3.5 3.5 0 0 0 7 0ZM33.81 110.11a3.5 3.5 0 1 0-7 0 3.5 3.5 0 0 0 7 0ZM33.81 83.46a3.5 3.5 0 1 0-7 0 3.5 3.5 0 0 0 7 0ZM33.81 56.8a3.5 3.5 0 1 0-7 0 3.5 3.5 0 0 0 7 0ZM33.81 30.15a3.5 3.5 0 1 0-7 0 3.5 3.5 0 0 0 7 0ZM33.81 3.5a3.5 3.5 0 1 0-7 0 3.5 3.5 0 0 0 7 0ZM60.45 110.11a3.5 3.5 0 1 0-7 0 3.5 3.5 0 0 0 7 0ZM60.45 83.46a3.5 3.5 0 1 0-7 0 3.5 3.5 0 0 0 7 0ZM60.45 56.8a3.5 3.5 0 1 0-7 0 3.5 3.5 0 0 0 7 0ZM60.45 30.15a3.5 3.5 0 1 0-7 0 3.5 3.5 0 0 0 7 0ZM60.45 3.5a3.5 3.5 0 1 0-7 0 3.5 3.5 0 0 0 7 0ZM87.26 110.11a3.5 3.5 0 1 0-7 0 3.5 3.5 0 0 0 7 0ZM87.26 83.46a3.5 3.5 0 1 0-7 0 3.5 3.5 0 0 0 7 0ZM87.26 56.8a3.5 3.5 0 1 0-7 0 3.5 3.5 0 0 0 7 0ZM87.26 30.15a3.5 3.5 0 1 0-7 0 3.5 3.5 0 0 0 7 0ZM87.26 3.5a3.5 3.5 0 1 0-7 0 3.5 3.5 0 0 0 7 0ZM113.9 110.11a3.5 3.5 0 1 0-7 0 3.5 3.5 0 0 0 7 0ZM113.9 83.46a3.5 3.5 0 1 0-7 0 3.5 3.5 0 0 0 7 0ZM113.9 56.8a3.5 3.5 0 1 0-7 0 3.5 3.5 0 0 0 7 0ZM113.9 30.15a3.5 3.5 0 1 0-7 0 3.5 3.5 0 0 0 7 0ZM113.9 3.5a3.5 3.5 0 1 0-7 0 3.5 3.5 0 0 0 7 0ZM140.7 110.11a3.5 3.5 0 1 0-7 0 3.5 3.5 0 0 0 7 0ZM140.7 83.46a3.5 3.5 0 1 0-7 0 3.5 3.5 0 0 0 7 0ZM140.7 56.8a3.5 3.5 0 1 0-7 0 3.5 3.5 0 0 0 7 0ZM140.7 30.15a3.5 3.5 0 1 0-7 0 3.5 3.5 0 0 0 7 0ZM140.7 3.5a3.5 3.5 0 1 0-7 0 3.5 3.5 0 0 0 7 0ZM167.34 110.11a3.5 3.5 0 1 0-7 0 3.5 3.5 0 0 0 7 0ZM167.34 83.46a3.5 3.5 0 1 0-7 0 3.5 3.5 0 0 0 7 0ZM167.34 56.8a3.5 3.5 0 1 0-7 0 3.5 3.5 0 0 0 7 0ZM167.34 30.15a3.5 3.5 0 1 0-7 0 3.5 3.5 0 0 0 7 0ZM167.34 3.5a3.5 3.5 0 1 0-7 0 3.5 3.5 0 0 0 7 0ZM194.15 110.11a3.5 3.5 0 1 0-7 0 3.5 3.5 0 0 0 7 0ZM194.15 83.46a3.5 3.5 0 1 0-7 0 3.5 3.5 0 0 0 7 0ZM194.15 56.8a3.5 3.5 0 1 0-7 0 3.5 3.5 0 0 0 7 0ZM194.15 30.15a3.5 3.5 0 1 0-7 0 3.5 3.5 0 0 0 7 0ZM194.15 3.5a3.5 3.5 0 1 0-7 0 3.5 3.5 0 0 0 7 0ZM220.79 110.11a3.5 3.5 0 1 0-7 0 3.5 3.5 0 0 0 7 0ZM220.79 83.46a3.5 3.5 0 1 0-7 0 3.5 3.5 0 0 0 7 0ZM220.79 56.8a3.5 3.5 0 1 0-7 0 3.5 3.5 0 0 0 7 0ZM220.79 30.15a3.5 3.5 0 1 0-7 0 3.5 3.5 0 0 0 7 0ZM220.79 3.5a3.5 3.5 0 1 0-7 0 3.5 3.5 0 0 0 7 0ZM247.6 110.11a3.5 3.5 0 1 0-7 0 3.5 3.5 0 0 0 7 0ZM247.6 83.46a3.5 3.5 0 1 0-7 0 3.5 3.5 0 0 0 7 0ZM247.6 56.8a3.5 3.5 0 1 0-7 0 3.5 3.5 0 0 0 7 0ZM247.6 30.15a3.5 3.5 0 1 0-7 0 3.5 3.5 0 0 0 7 0ZM247.6 3.5a3.5 3.5 0 1 0-7 0 3.5 3.5 0 0 0 7 0ZM274.41 110.11a3.5 3.5 0 1 0-7 0 3.5 3.5 0 0 0 7 0ZM274.41 83.46a3.5 3.5 0 1 0-7 0 3.5 3.5 0 0 0 7 0ZM274.41 56.8a3.5 3.5 0 1 0-7 0 3.5 3.5 0 0 0 7 0ZM274.41 30.15a3.5 3.5 0 1 0-7 0 3.5 3.5 0 0 0 7 0ZM274.41 3.5a3.5 3.5 0 1 0-7 0 3.5 3.5 0 0 0 7 0ZM301.05 110.11a3.5 3.5 0 1 0-7 0 3.5 3.5 0 0 0 7 0ZM301.05 83.46a3.5 3.5 0 1 0-7 0 3.5 3.5 0 0 0 7 0ZM301.05 56.8a3.5 3.5 0 1 0-7 0 3.5 3.5 0 0 0 7 0ZM301.05 30.15a3.5 3.5 0 1 0-7 0 3.5 3.5 0 0 0 7 0ZM301.05 3.5a3.5 3.5 0 1 0-7 0 3.5 3.5 0 0 0 7 0ZM327.86 110.11a3.5 3.5 0 1 0-7 0 3.5 3.5 0 0 0 7 0ZM327.86 83.46a3.5 3.5 0 1 0-7 0 3.5 3.5 0 0 0 7 0ZM327.86 56.8a3.5 3.5 0 1 0-7 0 3.5 3.5 0 0 0 7 0ZM327.86 30.15a3.5 3.5 0 1 0-7 0 3.5 3.5 0 0 0 7 0ZM327.86 3.5a3.5 3.5 0 1 0-7 0 3.5 3.5 0 0 0 7 0ZM354.5 110.11a3.5 3.5 0 1 0-7 0 3.5 3.5 0 0 0 7 0ZM354.5 83.46a3.5 3.5 0 1 0-7 0 3.5 3.5 0 0 0 7 0ZM354.5 56.8a3.5 3.5 0 1 0-7 0 3.5 3.5 0 0 0 7 0ZM354.5 30.15a3.5 3.5 0 1 0-7 0 3.5 3.5 0 0 0 7 0ZM354.5 3.5a3.5 3.5 0 1 0-7 0 3.5 3.5 0 0 0 7 0ZM381.3 110.11a3.5 3.5 0 1 0-7 0 3.5 3.5 0 0 0 7 0ZM381.3 83.46a3.5 3.5 0 1 0-7 0 3.5 3.5 0 0 0 7 0ZM381.3 56.8a3.5 3.5 0 1 0-7 0 3.5 3.5 0 0 0 7 0ZM381.3 30.15a3.5 3.5 0 1 0-7 0 3.5 3.5 0 0 0 7 0ZM381.3 3.5a3.5 3.5 0 1 0-7 0 3.5 3.5 0 0 0 7 0ZM7 963.11a3.5 3.5 0 1 0-7 0 3.5 3.5 0 0 0 7 0ZM7 936.46a3.5 3.5 0 1 0-7 0 3.5 3.5 0 0 0 7 0ZM7 909.8a3.5 3.5 0 1 0-7 0 3.5 3.5 0 0 0 7 0ZM7 883.15a3.5 3.5 0 1 0-7 0 3.5 3.5 0 0 0 7 0ZM7 856.5a3.5 3.5 0 1 0-7 0 3.5 3.5 0 0 0 7 0ZM7 829.85a3.5 3.5 0 1 0-7 0 3.5 3.5 0 0 0 7 0ZM7 803.2a3.5 3.5 0 1 0-7 0 3.5 3.5 0 0 0 7 0ZM7 776.54a3.5 3.5 0 1 0-7 0 3.5 3.5 0 0 0 7 0ZM7 749.89a3.5 3.5 0 1 0-7 0 3.5 3.5 0 0 0 7 0ZM7 723.23a3.5 3.5 0 1 0-7 0 3.5 3.5 0 0 0 7 0ZM7 696.58a3.5 3.5 0 1 0-7 0 3.5 3.5 0 0 0 7 0ZM7 669.93a3.5 3.5 0 1 0-7 0 3.5 3.5 0 0 0 7 0ZM7 643.27a3.5 3.5 0 1 0-7 0 3.5 3.5 0 0 0 7 0ZM7 616.62a3.5 3.5 0 1 0-7 0 3.5 3.5 0 0 0 7 0ZM7 590.15a3.5 3.5 0 1 0-7 0 3.5 3.5 0 0 0 7 0ZM33.81 963.11a3.5 3.5 0 1 0-7 0 3.5 3.5 0 0 0 7 0ZM33.81 936.46a3.5 3.5 0 1 0-7 0 3.5 3.5 0 0 0 7 0ZM33.81 909.8a3.5 3.5 0 1 0-7 0 3.5 3.5 0 0 0 7 0ZM33.81 883.15a3.5 3.5 0 1 0-7 0 3.5 3.5 0 0 0 7 0ZM33.81 856.5a3.5 3.5 0 1 0-7 0 3.5 3.5 0 0 0 7 0ZM33.81 829.85a3.5 3.5 0 1 0-7 0 3.5 3.5 0 0 0 7 0ZM33.81 803.2a3.5 3.5 0 1 0-7 0 3.5 3.5 0 0 0 7 0ZM33.81 776.54a3.5 3.5 0 1 0-7 0 3.5 3.5 0 0 0 7 0ZM33.81 749.89a3.5 3.5 0 1 0-7 0 3.5 3.5 0 0 0 7 0ZM33.81 723.23a3.5 3.5 0 1 0-7 0 3.5 3.5 0 0 0 7 0ZM33.81 696.58a3.5 3.5 0 1 0-7 0 3.5 3.5 0 0 0 7 0ZM33.81 669.93a3.5 3.5 0 1 0-7 0 3.5 3.5 0 0 0 7 0ZM33.81 643.27a3.5 3.5 0 1 0-7 0 3.5 3.5 0 0 0 7 0ZM33.81 616.62a3.5 3.5 0 1 0-7 0 3.5 3.5 0 0 0 7 0ZM33.81 590.15a3.5 3.5 0 1 0-7 0 3.5 3.5 0 0 0 7 0ZM60.45 963.11a3.5 3.5 0 1 0-7 0 3.5 3.5 0 0 0 7 0ZM60.45 936.46a3.5 3.5 0 1 0-7 0 3.5 3.5 0 0 0 7 0ZM60.45 909.8a3.5 3.5 0 1 0-7 0 3.5 3.5 0 0 0 7 0ZM60.45 883.15a3.5 3.5 0 1 0-7 0 3.5 3.5 0 0 0 7 0ZM60.45 856.5a3.5 3.5 0 1 0-7 0 3.5 3.5 0 0 0 7 0ZM60.45 829.85a3.5 3.5 0 1 0-7 0 3.5 3.5 0 0 0 7 0ZM60.45 803.2a3.5 3.5 0 1 0-7 0 3.5 3.5 0 0 0 7 0ZM60.45 776.54a3.5 3.5 0 1 0-7 0 3.5 3.5 0 0 0 7 0ZM60.45 749.89a3.5 3.5 0 1 0-7 0 3.5 3.5 0 0 0 7 0ZM60.45 723.23a3.5 3.5 0 1 0-7 0 3.5 3.5 0 0 0 7 0ZM60.45 696.58a3.5 3.5 0 1 0-7 0 3.5 3.5 0 0 0 7 0ZM60.45 669.93a3.5 3.5 0 1 0-7 0 3.5 3.5 0 0 0 7 0ZM60.45 643.27a3.5 3.5 0 1 0-7 0 3.5 3.5 0 0 0 7 0ZM60.45 616.62a3.5 3.5 0 1 0-7 0 3.5 3.5 0 0 0 7 0ZM60.45 590.15a3.5 3.5 0 1 0-7 0 3.5 3.5 0 0 0 7 0ZM87.26 963.11a3.5 3.5 0 1 0-7 0 3.5 3.5 0 0 0 7 0ZM87.26 936.46a3.5 3.5 0 1 0-7 0 3.5 3.5 0 0 0 7 0ZM87.26 909.8a3.5 3.5 0 1 0-7 0 3.5 3.5 0 0 0 7 0ZM87.26 883.15a3.5 3.5 0 1 0-7 0 3.5 3.5 0 0 0 7 0ZM87.26 856.5a3.5 3.5 0 1 0-7 0 3.5 3.5 0 0 0 7 0ZM87.26 829.85a3.5 3.5 0 1 0-7 0 3.5 3.5 0 0 0 7 0ZM87.26 803.2a3.5 3.5 0 1 0-7 0 3.5 3.5 0 0 0 7 0ZM87.26 776.54a3.5 3.5 0 1 0-7 0 3.5 3.5 0 0 0 7 0ZM87.26 749.89a3.5 3.5 0 1 0-7 0 3.5 3.5 0 0 0 7 0ZM87.26 723.23a3.5 3.5 0 1 0-7 0 3.5 3.5 0 0 0 7 0ZM87.26 696.58a3.5 3.5 0 1 0-7 0 3.5 3.5 0 0 0 7 0ZM87.26 669.93a3.5 3.5 0 1 0-7 0 3.5 3.5 0 0 0 7 0ZM87.26 643.27a3.5 3.5 0 1 0-7 0 3.5 3.5 0 0 0 7 0ZM87.26 616.62a3.5 3.5 0 1 0-7 0 3.5 3.5 0 0 0 7 0ZM87.26 590.15a3.5 3.5 0 1 0-7 0 3.5 3.5 0 0 0 7 0ZM113.9 963.11a3.5 3.5 0 1 0-7 0 3.5 3.5 0 0 0 7 0ZM113.9 936.46a3.5 3.5 0 1 0-7 0 3.5 3.5 0 0 0 7 0ZM113.9 909.8a3.5 3.5 0 1 0-7 0 3.5 3.5 0 0 0 7 0ZM113.9 883.15a3.5 3.5 0 1 0-7 0 3.5 3.5 0 0 0 7 0ZM113.9 856.5a3.5 3.5 0 1 0-7 0 3.5 3.5 0 0 0 7 0ZM113.9 829.85a3.5 3.5 0 1 0-7 0 3.5 3.5 0 0 0 7 0ZM113.9 803.2a3.5 3.5 0 1 0-7 0 3.5 3.5 0 0 0 7 0ZM113.9 776.54a3.5 3.5 0 1 0-7 0 3.5 3.5 0 0 0 7 0ZM113.9 749.89a3.5 3.5 0 1 0-7 0 3.5 3.5 0 0 0 7 0ZM113.9 723.23a3.5 3.5 0 1 0-7 0 3.5 3.5 0 0 0 7 0ZM113.9 696.58a3.5 3.5 0 1 0-7 0 3.5 3.5 0 0 0 7 0ZM113.9 669.93a3.5 3.5 0 1 0-7 0 3.5 3.5 0 0 0 7 0ZM113.9 643.27a3.5 3.5 0 1 0-7 0 3.5 3.5 0 0 0 7 0ZM113.9 616.62a3.5 3.5 0 1 0-7 0 3.5 3.5 0 0 0 7 0ZM113.9 590.15a3.5 3.5 0 1 0-7 0 3.5 3.5 0 0 0 7 0ZM140.7 963.11a3.5 3.5 0 1 0-7 0 3.5 3.5 0 0 0 7 0ZM140.7 936.46a3.5 3.5 0 1 0-7 0 3.5 3.5 0 0 0 7 0ZM140.7 909.8a3.5 3.5 0 1 0-7 0 3.5 3.5 0 0 0 7 0ZM140.7 883.15a3.5 3.5 0 1 0-7 0 3.5 3.5 0 0 0 7 0ZM140.7 856.5a3.5 3.5 0 1 0-7 0 3.5 3.5 0 0 0 7 0ZM140.7 829.85a3.5 3.5 0 1 0-7 0 3.5 3.5 0 0 0 7 0ZM140.7 803.2a3.5 3.5 0 1 0-7 0 3.5 3.5 0 0 0 7 0ZM140.7 776.54a3.5 3.5 0 1 0-7 0 3.5 3.5 0 0 0 7 0ZM140.7 749.89a3.5 3.5 0 1 0-7 0 3.5 3.5 0 0 0 7 0ZM140.7 723.23a3.5 3.5 0 1 0-7 0 3.5 3.5 0 0 0 7 0ZM140.7 696.58a3.5 3.5 0 1 0-7 0 3.5 3.5 0 0 0 7 0ZM140.7 669.93a3.5 3.5 0 1 0-7 0 3.5 3.5 0 0 0 7 0ZM140.7 643.27a3.5 3.5 0 1 0-7 0 3.5 3.5 0 0 0 7 0ZM140.7 616.62a3.5 3.5 0 1 0-7 0 3.5 3.5 0 0 0 7 0ZM140.7 590.15a3.5 3.5 0 1 0-7 0 3.5 3.5 0 0 0 7 0ZM167.34 963.11a3.5 3.5 0 1 0-7 0 3.5 3.5 0 0 0 7 0ZM167.34 936.46a3.5 3.5 0 1 0-7 0 3.5 3.5 0 0 0 7 0ZM167.34 909.8a3.5 3.5 0 1 0-7 0 3.5 3.5 0 0 0 7 0ZM167.34 883.15a3.5 3.5 0 1 0-7 0 3.5 3.5 0 0 0 7 0ZM167.34 856.5a3.5 3.5 0 1 0-7 0 3.5 3.5 0 0 0 7 0ZM167.34 829.85a3.5 3.5 0 1 0-7 0 3.5 3.5 0 0 0 7 0ZM167.34 803.2a3.5 3.5 0 1 0-7 0 3.5 3.5 0 0 0 7 0ZM167.34 776.54a3.5 3.5 0 1 0-7 0 3.5 3.5 0 0 0 7 0ZM167.34 749.89a3.5 3.5 0 1 0-7 0 3.5 3.5 0 0 0 7 0ZM167.34 723.23a3.5 3.5 0 1 0-7 0 3.5 3.5 0 0 0 7 0ZM167.34 696.58a3.5 3.5 0 1 0-7 0 3.5 3.5 0 0 0 7 0ZM167.34 669.93a3.5 3.5 0 1 0-7 0 3.5 3.5 0 0 0 7 0ZM167.34 643.27a3.5 3.5 0 1 0-7 0 3.5 3.5 0 0 0 7 0ZM167.34 616.62a3.5 3.5 0 1 0-7 0 3.5 3.5 0 0 0 7 0ZM167.34 590.15a3.5 3.5 0 1 0-7 0 3.5 3.5 0 0 0 7 0ZM194.15 963.11a3.5 3.5 0 1 0-7 0 3.5 3.5 0 0 0 7 0ZM194.15 936.46a3.5 3.5 0 1 0-7 0 3.5 3.5 0 0 0 7 0ZM194.15 909.8a3.5 3.5 0 1 0-7 0 3.5 3.5 0 0 0 7 0ZM194.15 883.15a3.5 3.5 0 1 0-7 0 3.5 3.5 0 0 0 7 0ZM194.15 856.5a3.5 3.5 0 1 0-7 0 3.5 3.5 0 0 0 7 0ZM194.15 829.85a3.5 3.5 0 1 0-7 0 3.5 3.5 0 0 0 7 0ZM194.15 803.2a3.5 3.5 0 1 0-7 0 3.5 3.5 0 0 0 7 0ZM194.15 776.54a3.5 3.5 0 1 0-7 0 3.5 3.5 0 0 0 7 0ZM194.15 749.89a3.5 3.5 0 1 0-7 0 3.5 3.5 0 0 0 7 0ZM194.15 723.23a3.5 3.5 0 1 0-7 0 3.5 3.5 0 0 0 7 0ZM194.15 696.58a3.5 3.5 0 1 0-7 0 3.5 3.5 0 0 0 7 0ZM194.15 669.93a3.5 3.5 0 1 0-7 0 3.5 3.5 0 0 0 7 0ZM194.15 643.27a3.5 3.5 0 1 0-7 0 3.5 3.5 0 0 0 7 0ZM194.15 616.62a3.5 3.5 0 1 0-7 0 3.5 3.5 0 0 0 7 0ZM194.15 590.15a3.5 3.5 0 1 0-7 0 3.5 3.5 0 0 0 7 0ZM220.79 963.11a3.5 3.5 0 1 0-7 0 3.5 3.5 0 0 0 7 0ZM220.79 936.46a3.5 3.5 0 1 0-7 0 3.5 3.5 0 0 0 7 0ZM220.79 909.8a3.5 3.5 0 1 0-7 0 3.5 3.5 0 0 0 7 0ZM220.79 883.15a3.5 3.5 0 1 0-7 0 3.5 3.5 0 0 0 7 0ZM220.79 856.5a3.5 3.5 0 1 0-7 0 3.5 3.5 0 0 0 7 0ZM220.79 829.85a3.5 3.5 0 1 0-7 0 3.5 3.5 0 0 0 7 0ZM220.79 803.2a3.5 3.5 0 1 0-7 0 3.5 3.5 0 0 0 7 0ZM220.79 776.54a3.5 3.5 0 1 0-7 0 3.5 3.5 0 0 0 7 0ZM220.79 749.89a3.5 3.5 0 1 0-7 0 3.5 3.5 0 0 0 7 0ZM220.79 723.23a3.5 3.5 0 1 0-7 0 3.5 3.5 0 0 0 7 0ZM220.79 696.58a3.5 3.5 0 1 0-7 0 3.5 3.5 0 0 0 7 0ZM220.79 669.93a3.5 3.5 0 1 0-7 0 3.5 3.5 0 0 0 7 0ZM220.79 643.27a3.5 3.5 0 1 0-7 0 3.5 3.5 0 0 0 7 0ZM220.79 616.62a3.5 3.5 0 1 0-7 0 3.5 3.5 0 0 0 7 0ZM220.79 590.15a3.5 3.5 0 1 0-7 0 3.5 3.5 0 0 0 7 0ZM247.6 963.11a3.5 3.5 0 1 0-7 0 3.5 3.5 0 0 0 7 0ZM247.6 936.46a3.5 3.5 0 1 0-7 0 3.5 3.5 0 0 0 7 0ZM247.6 909.8a3.5 3.5 0 1 0-7 0 3.5 3.5 0 0 0 7 0ZM247.6 883.15a3.5 3.5 0 1 0-7 0 3.5 3.5 0 0 0 7 0ZM247.6 856.5a3.5 3.5 0 1 0-7 0 3.5 3.5 0 0 0 7 0ZM247.6 829.85a3.5 3.5 0 1 0-7 0 3.5 3.5 0 0 0 7 0ZM247.6 803.2a3.5 3.5 0 1 0-7 0 3.5 3.5 0 0 0 7 0ZM247.6 776.54a3.5 3.5 0 1 0-7 0 3.5 3.5 0 0 0 7 0ZM247.6 749.89a3.5 3.5 0 1 0-7 0 3.5 3.5 0 0 0 7 0ZM247.6 723.23a3.5 3.5 0 1 0-7 0 3.5 3.5 0 0 0 7 0ZM247.6 696.58a3.5 3.5 0 1 0-7 0 3.5 3.5 0 0 0 7 0ZM247.6 669.93a3.5 3.5 0 1 0-7 0 3.5 3.5 0 0 0 7 0ZM247.6 643.27a3.5 3.5 0 1 0-7 0 3.5 3.5 0 0 0 7 0ZM247.6 616.62a3.5 3.5 0 1 0-7 0 3.5 3.5 0 0 0 7 0ZM247.6 590.15a3.5 3.5 0 1 0-7 0 3.5 3.5 0 0 0 7 0ZM274.41 963.11a3.5 3.5 0 1 0-7 0 3.5 3.5 0 0 0 7 0ZM274.41 936.46a3.5 3.5 0 1 0-7 0 3.5 3.5 0 0 0 7 0ZM274.41 909.8a3.5 3.5 0 1 0-7 0 3.5 3.5 0 0 0 7 0ZM274.41 883.15a3.5 3.5 0 1 0-7 0 3.5 3.5 0 0 0 7 0ZM274.41 856.5a3.5 3.5 0 1 0-7 0 3.5 3.5 0 0 0 7 0ZM274.41 829.85a3.5 3.5 0 1 0-7 0 3.5 3.5 0 0 0 7 0ZM274.41 803.2a3.5 3.5 0 1 0-7 0 3.5 3.5 0 0 0 7 0ZM274.41 776.54a3.5 3.5 0 1 0-7 0 3.5 3.5 0 0 0 7 0ZM274.41 749.89a3.5 3.5 0 1 0-7 0 3.5 3.5 0 0 0 7 0ZM274.41 723.23a3.5 3.5 0 1 0-7 0 3.5 3.5 0 0 0 7 0ZM274.41 696.58a3.5 3.5 0 1 0-7 0 3.5 3.5 0 0 0 7 0ZM274.41 669.93a3.5 3.5 0 1 0-7 0 3.5 3.5 0 0 0 7 0ZM274.41 643.27a3.5 3.5 0 1 0-7 0 3.5 3.5 0 0 0 7 0ZM274.41 616.62a3.5 3.5 0 1 0-7 0 3.5 3.5 0 0 0 7 0ZM274.41 590.15a3.5 3.5 0 1 0-7 0 3.5 3.5 0 0 0 7 0ZM301.05 963.11a3.5 3.5 0 1 0-7 0 3.5 3.5 0 0 0 7 0ZM301.05 936.46a3.5 3.5 0 1 0-7 0 3.5 3.5 0 0 0 7 0ZM301.05 909.8a3.5 3.5 0 1 0-7 0 3.5 3.5 0 0 0 7 0ZM301.05 883.15a3.5 3.5 0 1 0-7 0 3.5 3.5 0 0 0 7 0ZM301.05 856.5a3.5 3.5 0 1 0-7 0 3.5 3.5 0 0 0 7 0ZM301.05 829.85a3.5 3.5 0 1 0-7 0 3.5 3.5 0 0 0 7 0ZM301.05 803.2a3.5 3.5 0 1 0-7 0 3.5 3.5 0 0 0 7 0ZM301.05 776.54a3.5 3.5 0 1 0-7 0 3.5 3.5 0 0 0 7 0ZM301.05 749.89a3.5 3.5 0 1 0-7 0 3.5 3.5 0 0 0 7 0ZM301.05 723.23a3.5 3.5 0 1 0-7 0 3.5 3.5 0 0 0 7 0ZM301.05 696.58a3.5 3.5 0 1 0-7 0 3.5 3.5 0 0 0 7 0ZM301.05 669.93a3.5 3.5 0 1 0-7 0 3.5 3.5 0 0 0 7 0ZM301.05 643.27a3.5 3.5 0 1 0-7 0 3.5 3.5 0 0 0 7 0ZM301.05 616.62a3.5 3.5 0 1 0-7 0 3.5 3.5 0 0 0 7 0ZM301.05 590.15a3.5 3.5 0 1 0-7 0 3.5 3.5 0 0 0 7 0ZM327.86 963.11a3.5 3.5 0 1 0-7 0 3.5 3.5 0 0 0 7 0ZM327.86 936.46a3.5 3.5 0 1 0-7 0 3.5 3.5 0 0 0 7 0ZM327.86 909.8a3.5 3.5 0 1 0-7 0 3.5 3.5 0 0 0 7 0ZM327.86 883.15a3.5 3.5 0 1 0-7 0 3.5 3.5 0 0 0 7 0ZM327.86 856.5a3.5 3.5 0 1 0-7 0 3.5 3.5 0 0 0 7 0ZM327.86 829.85a3.5 3.5 0 1 0-7 0 3.5 3.5 0 0 0 7 0ZM327.86 803.2a3.5 3.5 0 1 0-7 0 3.5 3.5 0 0 0 7 0ZM327.86 776.54a3.5 3.5 0 1 0-7 0 3.5 3.5 0 0 0 7 0ZM327.86 749.89a3.5 3.5 0 1 0-7 0 3.5 3.5 0 0 0 7 0ZM327.86 723.23a3.5 3.5 0 1 0-7 0 3.5 3.5 0 0 0 7 0ZM327.86 696.58a3.5 3.5 0 1 0-7 0 3.5 3.5 0 0 0 7 0ZM327.86 669.93a3.5 3.5 0 1 0-7 0 3.5 3.5 0 0 0 7 0ZM327.86 643.27a3.5 3.5 0 1 0-7 0 3.5 3.5 0 0 0 7 0ZM327.86 616.62a3.5 3.5 0 1 0-7 0 3.5 3.5 0 0 0 7 0ZM327.86 590.15a3.5 3.5 0 1 0-7 0 3.5 3.5 0 0 0 7 0ZM354.5 963.11a3.5 3.5 0 1 0-7 0 3.5 3.5 0 0 0 7 0ZM354.5 936.46a3.5 3.5 0 1 0-7 0 3.5 3.5 0 0 0 7 0ZM354.5 909.8a3.5 3.5 0 1 0-7 0 3.5 3.5 0 0 0 7 0ZM354.5 883.15a3.5 3.5 0 1 0-7 0 3.5 3.5 0 0 0 7 0ZM354.5 856.5a3.5 3.5 0 1 0-7 0 3.5 3.5 0 0 0 7 0ZM354.5 829.85a3.5 3.5 0 1 0-7 0 3.5 3.5 0 0 0 7 0ZM354.5 803.2a3.5 3.5 0 1 0-7 0 3.5 3.5 0 0 0 7 0ZM354.5 776.54a3.5 3.5 0 1 0-7 0 3.5 3.5 0 0 0 7 0ZM354.5 749.89a3.5 3.5 0 1 0-7 0 3.5 3.5 0 0 0 7 0ZM354.5 723.23a3.5 3.5 0 1 0-7 0 3.5 3.5 0 0 0 7 0ZM354.5 696.58a3.5 3.5 0 1 0-7 0 3.5 3.5 0 0 0 7 0ZM354.5 669.93a3.5 3.5 0 1 0-7 0 3.5 3.5 0 0 0 7 0ZM354.5 643.27a3.5 3.5 0 1 0-7 0 3.5 3.5 0 0 0 7 0ZM354.5 616.62a3.5 3.5 0 1 0-7 0 3.5 3.5 0 0 0 7 0ZM354.5 590.15a3.5 3.5 0 1 0-7 0 3.5 3.5 0 0 0 7 0ZM381.3 963.11a3.5 3.5 0 1 0-7 0 3.5 3.5 0 0 0 7 0ZM381.3 936.46a3.5 3.5 0 1 0-7 0 3.5 3.5 0 0 0 7 0ZM381.3 909.8a3.5 3.5 0 1 0-7 0 3.5 3.5 0 0 0 7 0ZM381.3 883.15a3.5 3.5 0 1 0-7 0 3.5 3.5 0 0 0 7 0ZM381.3 856.5a3.5 3.5 0 1 0-7 0 3.5 3.5 0 0 0 7 0ZM381.3 829.85a3.5 3.5 0 1 0-7 0 3.5 3.5 0 0 0 7 0ZM381.3 803.2a3.5 3.5 0 1 0-7 0 3.5 3.5 0 0 0 7 0ZM381.3 776.54a3.5 3.5 0 1 0-7 0 3.5 3.5 0 0 0 7 0ZM381.3 749.89a3.5 3.5 0 1 0-7 0 3.5 3.5 0 0 0 7 0ZM381.3 723.23a3.5 3.5 0 1 0-7 0 3.5 3.5 0 0 0 7 0ZM381.3 696.58a3.5 3.5 0 1 0-7 0 3.5 3.5 0 0 0 7 0ZM381.3 669.93a3.5 3.5 0 1 0-7 0 3.5 3.5 0 0 0 7 0ZM381.3 643.27a3.5 3.5 0 1 0-7 0 3.5 3.5 0 0 0 7 0ZM381.3 616.62a3.5 3.5 0 1 0-7 0 3.5 3.5 0 0 0 7 0ZM381.3 590.15a3.5 3.5 0 1 0-7 0 3.5 3.5 0 0 0 7 0Z"/>
  <path fill="#93EA20" d="M7 590.11a3.5 3.5 0 1 0-7 0 3.5 3.5 0 0 0 7 0ZM7 563.46a3.5 3.5 0 1 0-7 0 3.5 3.5 0 0 0 7 0ZM7 536.8a3.5 3.5 0 1 0-7 0 3.5 3.5 0 0 0 7 0ZM7 510.15a3.5 3.5 0 1 0-7 0 3.5 3.5 0 0 0 7 0ZM7 483.5a3.5 3.5 0 1 0-7 0 3.5 3.5 0 0 0 7 0ZM33.81 590.11a3.5 3.5 0 1 0-7 0 3.5 3.5 0 0 0 7 0ZM33.81 563.46a3.5 3.5 0 1 0-7 0 3.5 3.5 0 0 0 7 0ZM33.81 536.8a3.5 3.5 0 1 0-7 0 3.5 3.5 0 0 0 7 0ZM33.81 510.15a3.5 3.5 0 1 0-7 0 3.5 3.5 0 0 0 7 0ZM33.81 483.5a3.5 3.5 0 1 0-7 0 3.5 3.5 0 0 0 7 0ZM60.45 590.11a3.5 3.5 0 1 0-7 0 3.5 3.5 0 0 0 7 0ZM60.45 563.46a3.5 3.5 0 1 0-7 0 3.5 3.5 0 0 0 7 0ZM60.45 536.8a3.5 3.5 0 1 0-7 0 3.5 3.5 0 0 0 7 0ZM60.45 510.15a3.5 3.5 0 1 0-7 0 3.5 3.5 0 0 0 7 0ZM60.45 483.5a3.5 3.5 0 1 0-7 0 3.5 3.5 0 0 0 7 0ZM87.26 590.11a3.5 3.5 0 1 0-7 0 3.5 3.5 0 0 0 7 0ZM87.26 563.46a3.5 3.5 0 1 0-7 0 3.5 3.5 0 0 0 7 0ZM87.26 536.8a3.5 3.5 0 1 0-7 0 3.5 3.5 0 0 0 7 0ZM87.26 510.15a3.5 3.5 0 1 0-7 0 3.5 3.5 0 0 0 7 0ZM87.26 483.5a3.5 3.5 0 1 0-7 0 3.5 3.5 0 0 0 7 0ZM113.9 590.11a3.5 3.5 0 1 0-7 0 3.5 3.5 0 0 0 7 0ZM113.9 563.46a3.5 3.5 0 1 0-7 0 3.5 3.5 0 0 0 7 0ZM113.9 536.8a3.5 3.5 0 1 0-7 0 3.5 3.5 0 0 0 7 0ZM113.9 510.15a3.5 3.5 0 1 0-7 0 3.5 3.5 0 0 0 7 0ZM113.9 483.5a3.5 3.5 0 1 0-7 0 3.5 3.5 0 0 0 7 0ZM140.7 590.11a3.5 3.5 0 1 0-7 0 3.5 3.5 0 0 0 7 0ZM140.7 563.46a3.5 3.5 0 1 0-7 0 3.5 3.5 0 0 0 7 0ZM140.7 536.8a3.5 3.5 0 1 0-7 0 3.5 3.5 0 0 0 7 0ZM140.7 510.15a3.5 3.5 0 1 0-7 0 3.5 3.5 0 0 0 7 0ZM140.7 483.5a3.5 3.5 0 1 0-7 0 3.5 3.5 0 0 0 7 0ZM167.34 590.11a3.5 3.5 0 1 0-7 0 3.5 3.5 0 0 0 7 0ZM167.34 563.46a3.5 3.5 0 1 0-7 0 3.5 3.5 0 0 0 7 0ZM167.34 536.8a3.5 3.5 0 1 0-7 0 3.5 3.5 0 0 0 7 0ZM167.34 510.15a3.5 3.5 0 1 0-7 0 3.5 3.5 0 0 0 7 0ZM167.34 483.5a3.5 3.5 0 1 0-7 0 3.5 3.5 0 0 0 7 0ZM194.15 590.11a3.5 3.5 0 1 0-7 0 3.5 3.5 0 0 0 7 0ZM194.15 563.46a3.5 3.5 0 1 0-7 0 3.5 3.5 0 0 0 7 0ZM194.15 536.8a3.5 3.5 0 1 0-7 0 3.5 3.5 0 0 0 7 0ZM194.15 510.15a3.5 3.5 0 1 0-7 0 3.5 3.5 0 0 0 7 0ZM194.15 483.5a3.5 3.5 0 1 0-7 0 3.5 3.5 0 0 0 7 0ZM220.79 590.11a3.5 3.5 0 1 0-7 0 3.5 3.5 0 0 0 7 0ZM220.79 563.46a3.5 3.5 0 1 0-7 0 3.5 3.5 0 0 0 7 0ZM220.79 536.8a3.5 3.5 0 1 0-7 0 3.5 3.5 0 0 0 7 0ZM220.79 510.15a3.5 3.5 0 1 0-7 0 3.5 3.5 0 0 0 7 0ZM220.79 483.5a3.5 3.5 0 1 0-7 0 3.5 3.5 0 0 0 7 0ZM247.6 590.11a3.5 3.5 0 1 0-7 0 3.5 3.5 0 0 0 7 0ZM247.6 563.46a3.5 3.5 0 1 0-7 0 3.5 3.5 0 0 0 7 0ZM247.6 536.8a3.5 3.5 0 1 0-7 0 3.5 3.5 0 0 0 7 0ZM247.6 510.15a3.5 3.5 0 1 0-7 0 3.5 3.5 0 0 0 7 0ZM247.6 483.5a3.5 3.5 0 1 0-7 0 3.5 3.5 0 0 0 7 0ZM274.41 590.11a3.5 3.5 0 1 0-7 0 3.5 3.5 0 0 0 7 0ZM274.41 563.46a3.5 3.5 0 1 0-7 0 3.5 3.5 0 0 0 7 0ZM274.41 536.8a3.5 3.5 0 1 0-7 0 3.5 3.5 0 0 0 7 0ZM274.41 510.15a3.5 3.5 0 1 0-7 0 3.5 3.5 0 0 0 7 0ZM274.41 483.5a3.5 3.5 0 1 0-7 0 3.5 3.5 0 0 0 7 0ZM301.05 590.11a3.5 3.5 0 1 0-7 0 3.5 3.5 0 0 0 7 0ZM301.05 563.46a3.5 3.5 0 1 0-7 0 3.5 3.5 0 0 0 7 0ZM301.05 536.8a3.5 3.5 0 1 0-7 0 3.5 3.5 0 0 0 7 0ZM301.05 510.15a3.5 3.5 0 1 0-7 0 3.5 3.5 0 0 0 7 0ZM301.05 483.5a3.5 3.5 0 1 0-7 0 3.5 3.5 0 0 0 7 0ZM327.86 590.11a3.5 3.5 0 1 0-7 0 3.5 3.5 0 0 0 7 0ZM327.86 563.46a3.5 3.5 0 1 0-7 0 3.5 3.5 0 0 0 7 0ZM327.86 536.8a3.5 3.5 0 1 0-7 0 3.5 3.5 0 0 0 7 0ZM327.86 510.15a3.5 3.5 0 1 0-7 0 3.5 3.5 0 0 0 7 0ZM327.86 483.5a3.5 3.5 0 1 0-7 0 3.5 3.5 0 0 0 7 0ZM354.5 590.11a3.5 3.5 0 1 0-7 0 3.5 3.5 0 0 0 7 0ZM354.5 563.46a3.5 3.5 0 1 0-7 0 3.5 3.5 0 0 0 7 0ZM354.5 536.8a3.5 3.5 0 1 0-7 0 3.5 3.5 0 0 0 7 0ZM354.5 510.15a3.5 3.5 0 1 0-7 0 3.5 3.5 0 0 0 7 0ZM354.5 483.5a3.5 3.5 0 1 0-7 0 3.5 3.5 0 0 0 7 0ZM381.3 590.11a3.5 3.5 0 1 0-7 0 3.5 3.5 0 0 0 7 0ZM381.3 563.46a3.5 3.5 0 1 0-7 0 3.5 3.5 0 0 0 7 0ZM381.3 536.8a3.5 3.5 0 1 0-7 0 3.5 3.5 0 0 0 7 0ZM381.3 510.15a3.5 3.5 0 1 0-7 0 3.5 3.5 0 0 0 7 0ZM381.3 483.5a3.5 3.5 0 1 0-7 0 3.5 3.5 0 0 0 7 0Z"/>
</svg>
