<svg width="24" height="24" viewBox="0 0 24 24" fill="none" xmlns="http://www.w3.org/2000/svg">
<path d="M8.71612 19C15.3169 19 18.9235 13.5947 18.9235 8.92806C18.9235 8.79377 18.9235 8.62591 18.9235 8.49161C19.604 7.98802 20.2504 7.3837 20.6928 6.64509C20.0803 6.94725 19.3658 7.14869 18.6173 7.21584C19.3658 6.77939 19.9442 6.10792 20.1824 5.23502C19.5019 5.67147 18.7193 5.90647 17.9027 6.10791C17.2903 5.43645 16.3376 5 15.2488 5C13.2414 5 11.6763 6.61151 11.6763 8.52518C11.6763 8.76019 11.7443 9.09593 11.7443 9.33094C8.78418 9.19665 6.09624 7.78657 4.32697 5.60431C4.02074 6.10791 3.8166 6.71223 3.8166 7.41727C3.8166 8.65948 4.42903 9.70025 5.38172 10.4053C4.8033 10.4053 4.25891 10.2038 3.74854 9.96882C3.74854 9.96882 3.74854 9.96882 3.74854 10.036C3.74854 11.7818 5.00745 13.1919 6.64063 13.5276C6.33441 13.5947 6.02819 13.6619 5.68795 13.6619C5.44978 13.6619 5.24563 13.6619 5.00746 13.5947C5.44978 15.0384 6.77673 16.012 8.34186 16.0791C7.08295 17.0192 5.58586 17.5564 3.88463 17.5564C3.57841 17.5564 3.30622 17.5564 3 17.4892C4.8033 18.3957 6.70867 19 8.71612 19Z"/>
</svg>
