<svg fill="none" viewBox="0 0 24 24">
  <path d="M16.94 18.53c.22-.02 2.86-.74 4.06-2.07-1.54-.48-1.27-.98-2.37-2.23.88-1.66.58-2.43 1.95-3.64a12.48 12.48 0 0 0-3.32-.65h-.91l-.36.03h-.1c-.12 0-.22.02-.32.04h-.02c-.05 0-.1.03-.18.03-.02 0-.04 0-.07.02-.07.03-.15.03-.22.05a5.22 5.22 0 0 0-1.98.92c.73.26 1.3.77 1.64 1.4.37.62.49 1.36.37 2.1A3.24 3.24 0 0 0 16.89 13l.15-.36c.24-.7.34-1.37.27-2.24h.12c.66.02 1.42.17 2.32.4-.51.61-.7 1.16-.9 1.77-.12.36-.27.79-.52 1.27l-.07.1c-.39-.32-.73-.56-1.08-.77a3.45 3.45 0 0 1-1.98 1.7l-.24.1c-.07.22-.2.44-.34.68a3.08 3.08 0 0 1-.98.94l.15.04c.02 0 .02 0 .04.03l.1.02h.08c.02 0 .07 0 .1.03h.95c.1-.03.2-.03.29-.05h.05l.3-.08h.02c.1-.02.2-.04.3-.1h.02c.1-.02.2-.06.26-.09.13-.05.25-.12.35-.17a5.76 5.76 0 0 0 1.66-1.51l.05.07c.27.31.44.58.59.8.29.45.53.81 1.17 1.13-1.22.93-3.08 1.42-3.16 1.44l-.14.02a9.12 9.12 0 0 0-.4-1.42c-.4.17-.87.32-1.34.36-.44.08-1.07.1-1.61-.1l-.27-.09h-.1l-.2.07c-.02 0-.02.03-.04.03l-.22.07h-.03c-.07.02-.15.02-.22.05h-.1l-.2.02h-.04c-.07 0-.15 0-.22.03h-.32l.07.12.1.12c.08.07.15.14.22.24l.27.21c.32.25.69.44 1.08.58.14.07.32.12.46.17l.4.1.21.02h.05l.15.02h.07c.08 0 .15.03.22.03H15.6c.07 0 .14 0 .22-.03h.04l.2-.02h.05c.02 0 .07 0 .1-.02h.07c.05 0 .07-.03.12-.03h.03l.02.12c.1.7.1 1.33-.22 2.29-.76-.63-1.47-.7-2.15-.77a5.14 5.14 0 0 1-1-.17l-.08-.02c.27-.41.52-.8.64-1.16h-.05c-.17-.05-.34-.1-.49-.17a4.7 4.7 0 0 1-1.15-.62l-.3-.24-.26-.27c-.05-.05-.07-.1-.12-.14-.03-.05-.08-.1-.1-.15l-.15-.24a2.3 2.3 0 0 1-1.25-.72c-.14.77 0 1.59.5 2.29.07.1.14.21.24.31a5.44 5.44 0 0 0 2.25 1.54c.12.05.27.07.39.12l.37.07c.31.05.6.07.9.1.1 0 .2.02.27.05l.27.07a1.71 1.71 0 0 1 .54.24l.1.07.22.15c.07.04.14.12.22.19.12.1.22.24.34.36.76-1.73.68-2.62.56-3.47ZM7.72 5.18c-.24 0-2.96.33-4.3 1.49 1.46.7 1.12 1.15 2.03 2.55-1.1 1.52-.9 2.33-2.45 3.32 1.3.6 2.35.96 3.2 1.1l.42.08c.02 0 .07 0 .1.02.12.03.27.03.39.05.12 0 .24.03.37.03H8.16c.07 0 .15 0 .24-.03a5.85 5.85 0 0 0 1.5-.31c.22-.07.41-.2.6-.31A3.1 3.1 0 0 1 9.03 9.4a3.13 3.13 0 0 0-2.18 1.64 5.09 5.09 0 0 0-.59 2.17l-.12-.03c-.64-.12-1.37-.36-2.23-.72.62-.53.86-1.06 1.15-1.61.18-.36.37-.75.69-1.2l.05-.08c.34.36.66.65.95.92.2-.27.42-.53.69-.73a3.8 3.8 0 0 1 1.51-.7l.27-.04c.1-.2.25-.41.42-.6.12-.15.24-.27.39-.39a3 3 0 0 1 .7-.4l-.14-.08c-.02 0-.02-.02-.05-.02-.02-.03-.07-.03-.1-.05-.02 0-.04-.03-.07-.03l-.1-.02c-.02 0-.05 0-.07-.02l-.1-.03c-.02 0-.05 0-.07-.02-.03 0-.07 0-.1-.03H8.97l-.3.03h-.04c-.1.02-.2.02-.3.05h-.02l-.3.07c-.12.02-.24.07-.36.12-.69.29-1.28.67-1.86 1.27l-.05-.07c-.22-.34-.34-.62-.47-.87a2.73 2.73 0 0 0-1-1.3 9.57 9.57 0 0 1 3.33-.98l.14-.03c.03.53.1 1.04.2 1.47.42-.12.93-.19 1.4-.17.43 0 1.07.05 1.58.34l.25.15h.1c.07-.03.14-.05.22-.05h.05c.07-.03.14-.03.22-.03H12.34c.08 0 .15 0 .22.03h.08l.24.02-.07-.14-.08-.15c-.05-.1-.12-.17-.2-.26l-.21-.24c-.3-.27-.64-.5-.98-.7l-.44-.22-.37-.14c-.07-.03-.14-.05-.2-.05l-.04-.02c-.05-.03-.1-.03-.15-.05-.02 0-.02 0-.05-.03h-.02l-.22-.04H9.8l-.1-.03-.07-.02h-.05c-.05 0-.12-.03-.2-.03h-.07l-.17-.02h-.05l-.22-.02H8.26V5.1c0-.7.1-1.32.54-2.23.66.72 1.34.89 2 1.06.32.07.64.16.98.3l.07.03c-.34.39-.63.72-.78 1.06.03 0 .03 0 .05.03.15.07.32.14.46.24.42.21.79.48 1.06.77l.24.26.22.29.1.17.07.17.1.26c.49.2.98.58 1.12.9a3.1 3.1 0 0 0-.34-2.68 5.47 5.47 0 0 0-2-1.83l-.37-.17c-.12-.05-.24-.1-.34-.12-.32-.1-.61-.14-.9-.24l-.28-.07c-.1-.02-.17-.07-.27-.1-.1-.04-.2-.1-.31-.17-.08-.04-.15-.1-.2-.14l-.1-.07c-.07-.05-.12-.12-.2-.2-.07-.07-.11-.14-.19-.21L8.7 2a5.06 5.06 0 0 0-.97 3.18Z"/>
</svg>
