<svg fill="none" viewBox="0 0 24 24">
  <path d="M8.72 19c6.6 0 10.2-5.4 10.2-10.07v-.44c.68-.5 1.33-1.1 1.77-1.84-.61.3-1.32.5-2.07.57a3.3 3.3 0 0 0 1.56-1.98c-.68.43-1.46.67-2.28.87A3.58 3.58 0 0 0 15.25 5c-2 0-3.57 1.61-3.57 3.53 0 .23.06.57.06.8A10.16 10.16 0 0 1 4.33 5.6c-.3.5-.51 1.11-.51 1.82 0 1.24.6 2.28 1.56 2.99-.58 0-1.12-.2-1.63-.44v.07a3.58 3.58 0 0 0 2.9 3.49c-.32.06-.62.13-.96.13-.24 0-.44 0-.68-.07a3.58 3.58 0 0 0 3.33 2.49 7.32 7.32 0 0 1-4.46 1.48c-.3 0-.57 0-.88-.07 1.8.9 3.7 1.51 5.72 1.51Z"/>
</svg>
