<svg xmlns="http://www.w3.org/2000/svg" xmlns:xlink="http://www.w3.org/1999/xlink"><symbol id="dots" viewBox="0 0 72 572">
  <path fill="#93EA20" d="M7 483.11a3.5 3.5 0 1 0-7 0 3.5 3.5 0 0 0 7 0ZM7 456.46a3.5 3.5 0 1 0-7 0 3.5 3.5 0 0 0 7 0ZM7 429.8a3.5 3.5 0 1 0-7 0 3.5 3.5 0 0 0 7 0ZM7 403.15a3.5 3.5 0 1 0-7 0 3.5 3.5 0 0 0 7 0ZM7 376.5a3.5 3.5 0 1 0-7 0 3.5 3.5 0 0 0 7 0ZM7 349.85a3.5 3.5 0 1 0-7 0 3.5 3.5 0 0 0 7 0ZM7 323.2a3.5 3.5 0 1 0-7 0 3.5 3.5 0 0 0 7 0ZM7 296.54a3.5 3.5 0 1 0-7 0 3.5 3.5 0 0 0 7 0ZM7 269.89a3.5 3.5 0 1 0-7 0 3.5 3.5 0 0 0 7 0ZM7 243.23a3.5 3.5 0 1 0-7 0 3.5 3.5 0 0 0 7 0ZM7 216.58a3.5 3.5 0 1 0-7 0 3.5 3.5 0 0 0 7 0ZM7 189.93a3.5 3.5 0 1 0-7 0 3.5 3.5 0 0 0 7 0ZM7 163.28a3.5 3.5 0 1 0-7 0 3.5 3.5 0 0 0 7 0ZM7 136.62a3.5 3.5 0 1 0-7 0 3.5 3.5 0 0 0 7 0ZM7 110.15a3.5 3.5 0 1 0-7 0 3.5 3.5 0 0 0 7 0ZM33.81 483.11a3.5 3.5 0 1 0-7 0 3.5 3.5 0 0 0 7 0ZM33.81 456.46a3.5 3.5 0 1 0-7 0 3.5 3.5 0 0 0 7 0ZM33.81 429.8a3.5 3.5 0 1 0-7 0 3.5 3.5 0 0 0 7 0ZM33.81 403.15a3.5 3.5 0 1 0-7 0 3.5 3.5 0 0 0 7 0ZM33.81 376.5a3.5 3.5 0 1 0-7 0 3.5 3.5 0 0 0 7 0ZM33.81 349.85a3.5 3.5 0 1 0-7 0 3.5 3.5 0 0 0 7 0ZM33.81 323.2a3.5 3.5 0 1 0-7 0 3.5 3.5 0 0 0 7 0ZM33.81 296.54a3.5 3.5 0 1 0-7 0 3.5 3.5 0 0 0 7 0ZM33.81 269.89a3.5 3.5 0 1 0-7 0 3.5 3.5 0 0 0 7 0ZM33.81 243.23a3.5 3.5 0 1 0-7 0 3.5 3.5 0 0 0 7 0ZM33.81 216.58a3.5 3.5 0 1 0-7 0 3.5 3.5 0 0 0 7 0ZM33.81 189.93a3.5 3.5 0 1 0-7 0 3.5 3.5 0 0 0 7 0ZM33.81 163.28a3.5 3.5 0 1 0-7 0 3.5 3.5 0 0 0 7 0ZM33.81 136.62a3.5 3.5 0 1 0-7 0 3.5 3.5 0 0 0 7 0ZM33.81 110.15a3.5 3.5 0 1 0-7 0 3.5 3.5 0 0 0 7 0ZM60.45 483.11a3.5 3.5 0 1 0-7 0 3.5 3.5 0 0 0 7 0ZM60.45 456.46a3.5 3.5 0 1 0-7 0 3.5 3.5 0 0 0 7 0ZM60.45 429.8a3.5 3.5 0 1 0-7 0 3.5 3.5 0 0 0 7 0ZM60.45 403.15a3.5 3.5 0 1 0-7 0 3.5 3.5 0 0 0 7 0ZM60.45 376.5a3.5 3.5 0 1 0-7 0 3.5 3.5 0 0 0 7 0ZM60.45 349.85a3.5 3.5 0 1 0-7 0 3.5 3.5 0 0 0 7 0ZM60.45 323.2a3.5 3.5 0 1 0-7 0 3.5 3.5 0 0 0 7 0ZM60.45 296.54a3.5 3.5 0 1 0-7 0 3.5 3.5 0 0 0 7 0ZM60.45 269.89a3.5 3.5 0 1 0-7 0 3.5 3.5 0 0 0 7 0ZM60.45 243.23a3.5 3.5 0 1 0-7 0 3.5 3.5 0 0 0 7 0ZM60.45 216.58a3.5 3.5 0 1 0-7 0 3.5 3.5 0 0 0 7 0ZM60.45 189.93a3.5 3.5 0 1 0-7 0 3.5 3.5 0 0 0 7 0ZM60.45 163.28a3.5 3.5 0 1 0-7 0 3.5 3.5 0 0 0 7 0ZM60.45 136.62a3.5 3.5 0 1 0-7 0 3.5 3.5 0 0 0 7 0ZM60.45 110.15a3.5 3.5 0 1 0-7 0 3.5 3.5 0 0 0 7 0ZM87.26 483.11a3.5 3.5 0 1 0-7 0 3.5 3.5 0 0 0 7 0ZM87.26 456.46a3.5 3.5 0 1 0-7 0 3.5 3.5 0 0 0 7 0ZM87.26 429.8a3.5 3.5 0 1 0-7 0 3.5 3.5 0 0 0 7 0ZM87.26 403.15a3.5 3.5 0 1 0-7 0 3.5 3.5 0 0 0 7 0ZM87.26 376.5a3.5 3.5 0 1 0-7 0 3.5 3.5 0 0 0 7 0ZM87.26 349.85a3.5 3.5 0 1 0-7 0 3.5 3.5 0 0 0 7 0ZM87.26 323.2a3.5 3.5 0 1 0-7 0 3.5 3.5 0 0 0 7 0ZM87.26 296.54a3.5 3.5 0 1 0-7 0 3.5 3.5 0 0 0 7 0ZM87.26 269.89a3.5 3.5 0 1 0-7 0 3.5 3.5 0 0 0 7 0ZM87.26 243.23a3.5 3.5 0 1 0-7 0 3.5 3.5 0 0 0 7 0ZM87.26 216.58a3.5 3.5 0 1 0-7 0 3.5 3.5 0 0 0 7 0ZM87.26 189.93a3.5 3.5 0 1 0-7 0 3.5 3.5 0 0 0 7 0ZM87.26 163.28a3.5 3.5 0 1 0-7 0 3.5 3.5 0 0 0 7 0ZM87.26 136.62a3.5 3.5 0 1 0-7 0 3.5 3.5 0 0 0 7 0ZM87.26 110.15a3.5 3.5 0 1 0-7 0 3.5 3.5 0 0 0 7 0ZM113.9 483.11a3.5 3.5 0 1 0-7 0 3.5 3.5 0 0 0 7 0ZM113.9 456.46a3.5 3.5 0 1 0-7 0 3.5 3.5 0 0 0 7 0ZM113.9 429.8a3.5 3.5 0 1 0-7 0 3.5 3.5 0 0 0 7 0ZM113.9 403.15a3.5 3.5 0 1 0-7 0 3.5 3.5 0 0 0 7 0ZM113.9 376.5a3.5 3.5 0 1 0-7 0 3.5 3.5 0 0 0 7 0ZM113.9 349.85a3.5 3.5 0 1 0-7 0 3.5 3.5 0 0 0 7 0ZM113.9 323.2a3.5 3.5 0 1 0-7 0 3.5 3.5 0 0 0 7 0ZM113.9 296.54a3.5 3.5 0 1 0-7 0 3.5 3.5 0 0 0 7 0ZM113.9 269.89a3.5 3.5 0 1 0-7 0 3.5 3.5 0 0 0 7 0ZM113.9 243.23a3.5 3.5 0 1 0-7 0 3.5 3.5 0 0 0 7 0ZM113.9 216.58a3.5 3.5 0 1 0-7 0 3.5 3.5 0 0 0 7 0ZM113.9 189.93a3.5 3.5 0 1 0-7 0 3.5 3.5 0 0 0 7 0ZM113.9 163.28a3.5 3.5 0 1 0-7 0 3.5 3.5 0 0 0 7 0ZM113.9 136.62a3.5 3.5 0 1 0-7 0 3.5 3.5 0 0 0 7 0ZM113.9 110.15a3.5 3.5 0 1 0-7 0 3.5 3.5 0 0 0 7 0ZM140.7 483.11a3.5 3.5 0 1 0-7 0 3.5 3.5 0 0 0 7 0ZM140.7 456.46a3.5 3.5 0 1 0-7 0 3.5 3.5 0 0 0 7 0ZM140.7 429.8a3.5 3.5 0 1 0-7 0 3.5 3.5 0 0 0 7 0ZM140.7 403.15a3.5 3.5 0 1 0-7 0 3.5 3.5 0 0 0 7 0ZM140.7 376.5a3.5 3.5 0 1 0-7 0 3.5 3.5 0 0 0 7 0ZM140.7 349.85a3.5 3.5 0 1 0-7 0 3.5 3.5 0 0 0 7 0ZM140.7 323.2a3.5 3.5 0 1 0-7 0 3.5 3.5 0 0 0 7 0ZM140.7 296.54a3.5 3.5 0 1 0-7 0 3.5 3.5 0 0 0 7 0ZM140.7 269.89a3.5 3.5 0 1 0-7 0 3.5 3.5 0 0 0 7 0ZM140.7 243.23a3.5 3.5 0 1 0-7 0 3.5 3.5 0 0 0 7 0ZM140.7 216.58a3.5 3.5 0 1 0-7 0 3.5 3.5 0 0 0 7 0ZM140.7 189.93a3.5 3.5 0 1 0-7 0 3.5 3.5 0 0 0 7 0ZM140.7 163.28a3.5 3.5 0 1 0-7 0 3.5 3.5 0 0 0 7 0ZM140.7 136.62a3.5 3.5 0 1 0-7 0 3.5 3.5 0 0 0 7 0ZM140.7 110.15a3.5 3.5 0 1 0-7 0 3.5 3.5 0 0 0 7 0ZM167.34 483.11a3.5 3.5 0 1 0-7 0 3.5 3.5 0 0 0 7 0ZM167.34 456.46a3.5 3.5 0 1 0-7 0 3.5 3.5 0 0 0 7 0ZM167.34 429.8a3.5 3.5 0 1 0-7 0 3.5 3.5 0 0 0 7 0ZM167.34 403.15a3.5 3.5 0 1 0-7 0 3.5 3.5 0 0 0 7 0ZM167.34 376.5a3.5 3.5 0 1 0-7 0 3.5 3.5 0 0 0 7 0ZM167.34 349.85a3.5 3.5 0 1 0-7 0 3.5 3.5 0 0 0 7 0ZM167.34 323.2a3.5 3.5 0 1 0-7 0 3.5 3.5 0 0 0 7 0ZM167.34 296.54a3.5 3.5 0 1 0-7 0 3.5 3.5 0 0 0 7 0ZM167.34 269.89a3.5 3.5 0 1 0-7 0 3.5 3.5 0 0 0 7 0ZM167.34 243.23a3.5 3.5 0 1 0-7 0 3.5 3.5 0 0 0 7 0ZM167.34 216.58a3.5 3.5 0 1 0-7 0 3.5 3.5 0 0 0 7 0ZM167.34 189.93a3.5 3.5 0 1 0-7 0 3.5 3.5 0 0 0 7 0ZM167.34 163.28a3.5 3.5 0 1 0-7 0 3.5 3.5 0 0 0 7 0ZM167.34 136.62a3.5 3.5 0 1 0-7 0 3.5 3.5 0 0 0 7 0ZM167.34 110.15a3.5 3.5 0 1 0-7 0 3.5 3.5 0 0 0 7 0ZM194.15 483.11a3.5 3.5 0 1 0-7 0 3.5 3.5 0 0 0 7 0ZM194.15 456.46a3.5 3.5 0 1 0-7 0 3.5 3.5 0 0 0 7 0ZM194.15 429.8a3.5 3.5 0 1 0-7 0 3.5 3.5 0 0 0 7 0ZM194.15 403.15a3.5 3.5 0 1 0-7 0 3.5 3.5 0 0 0 7 0ZM194.15 376.5a3.5 3.5 0 1 0-7 0 3.5 3.5 0 0 0 7 0ZM194.15 349.85a3.5 3.5 0 1 0-7 0 3.5 3.5 0 0 0 7 0ZM194.15 323.2a3.5 3.5 0 1 0-7 0 3.5 3.5 0 0 0 7 0ZM194.15 296.54a3.5 3.5 0 1 0-7 0 3.5 3.5 0 0 0 7 0ZM194.15 269.89a3.5 3.5 0 1 0-7 0 3.5 3.5 0 0 0 7 0ZM194.15 243.23a3.5 3.5 0 1 0-7 0 3.5 3.5 0 0 0 7 0ZM194.15 216.58a3.5 3.5 0 1 0-7 0 3.5 3.5 0 0 0 7 0ZM194.15 189.93a3.5 3.5 0 1 0-7 0 3.5 3.5 0 0 0 7 0ZM194.15 163.28a3.5 3.5 0 1 0-7 0 3.5 3.5 0 0 0 7 0ZM194.15 136.62a3.5 3.5 0 1 0-7 0 3.5 3.5 0 0 0 7 0ZM194.15 110.15a3.5 3.5 0 1 0-7 0 3.5 3.5 0 0 0 7 0ZM220.79 483.11a3.5 3.5 0 1 0-7 0 3.5 3.5 0 0 0 7 0ZM220.79 456.46a3.5 3.5 0 1 0-7 0 3.5 3.5 0 0 0 7 0ZM220.79 429.8a3.5 3.5 0 1 0-7 0 3.5 3.5 0 0 0 7 0ZM220.79 403.15a3.5 3.5 0 1 0-7 0 3.5 3.5 0 0 0 7 0ZM220.79 376.5a3.5 3.5 0 1 0-7 0 3.5 3.5 0 0 0 7 0ZM220.79 349.85a3.5 3.5 0 1 0-7 0 3.5 3.5 0 0 0 7 0ZM220.79 323.2a3.5 3.5 0 1 0-7 0 3.5 3.5 0 0 0 7 0ZM220.79 296.54a3.5 3.5 0 1 0-7 0 3.5 3.5 0 0 0 7 0ZM220.79 269.89a3.5 3.5 0 1 0-7 0 3.5 3.5 0 0 0 7 0ZM220.79 243.23a3.5 3.5 0 1 0-7 0 3.5 3.5 0 0 0 7 0ZM220.79 216.58a3.5 3.5 0 1 0-7 0 3.5 3.5 0 0 0 7 0ZM220.79 189.93a3.5 3.5 0 1 0-7 0 3.5 3.5 0 0 0 7 0ZM220.79 163.28a3.5 3.5 0 1 0-7 0 3.5 3.5 0 0 0 7 0ZM220.79 136.62a3.5 3.5 0 1 0-7 0 3.5 3.5 0 0 0 7 0ZM220.79 110.15a3.5 3.5 0 1 0-7 0 3.5 3.5 0 0 0 7 0ZM247.6 483.11a3.5 3.5 0 1 0-7 0 3.5 3.5 0 0 0 7 0ZM247.6 456.46a3.5 3.5 0 1 0-7 0 3.5 3.5 0 0 0 7 0ZM247.6 429.8a3.5 3.5 0 1 0-7 0 3.5 3.5 0 0 0 7 0ZM247.6 403.15a3.5 3.5 0 1 0-7 0 3.5 3.5 0 0 0 7 0ZM247.6 376.5a3.5 3.5 0 1 0-7 0 3.5 3.5 0 0 0 7 0ZM247.6 349.85a3.5 3.5 0 1 0-7 0 3.5 3.5 0 0 0 7 0ZM247.6 323.2a3.5 3.5 0 1 0-7 0 3.5 3.5 0 0 0 7 0ZM247.6 296.54a3.5 3.5 0 1 0-7 0 3.5 3.5 0 0 0 7 0ZM247.6 269.89a3.5 3.5 0 1 0-7 0 3.5 3.5 0 0 0 7 0ZM247.6 243.23a3.5 3.5 0 1 0-7 0 3.5 3.5 0 0 0 7 0ZM247.6 216.58a3.5 3.5 0 1 0-7 0 3.5 3.5 0 0 0 7 0ZM247.6 189.93a3.5 3.5 0 1 0-7 0 3.5 3.5 0 0 0 7 0ZM247.6 163.28a3.5 3.5 0 1 0-7 0 3.5 3.5 0 0 0 7 0ZM247.6 136.62a3.5 3.5 0 1 0-7 0 3.5 3.5 0 0 0 7 0ZM247.6 110.15a3.5 3.5 0 1 0-7 0 3.5 3.5 0 0 0 7 0ZM274.41 483.11a3.5 3.5 0 1 0-7 0 3.5 3.5 0 0 0 7 0ZM274.41 456.46a3.5 3.5 0 1 0-7 0 3.5 3.5 0 0 0 7 0ZM274.41 429.8a3.5 3.5 0 1 0-7 0 3.5 3.5 0 0 0 7 0ZM274.41 403.15a3.5 3.5 0 1 0-7 0 3.5 3.5 0 0 0 7 0ZM274.41 376.5a3.5 3.5 0 1 0-7 0 3.5 3.5 0 0 0 7 0ZM274.41 349.85a3.5 3.5 0 1 0-7 0 3.5 3.5 0 0 0 7 0ZM274.41 323.2a3.5 3.5 0 1 0-7 0 3.5 3.5 0 0 0 7 0ZM274.41 296.54a3.5 3.5 0 1 0-7 0 3.5 3.5 0 0 0 7 0ZM274.41 269.89a3.5 3.5 0 1 0-7 0 3.5 3.5 0 0 0 7 0ZM274.41 243.23a3.5 3.5 0 1 0-7 0 3.5 3.5 0 0 0 7 0ZM274.41 216.58a3.5 3.5 0 1 0-7 0 3.5 3.5 0 0 0 7 0ZM274.41 189.93a3.5 3.5 0 1 0-7 0 3.5 3.5 0 0 0 7 0ZM274.41 163.28a3.5 3.5 0 1 0-7 0 3.5 3.5 0 0 0 7 0ZM274.41 136.62a3.5 3.5 0 1 0-7 0 3.5 3.5 0 0 0 7 0ZM274.41 110.15a3.5 3.5 0 1 0-7 0 3.5 3.5 0 0 0 7 0ZM301.05 483.11a3.5 3.5 0 1 0-7 0 3.5 3.5 0 0 0 7 0ZM301.05 456.46a3.5 3.5 0 1 0-7 0 3.5 3.5 0 0 0 7 0ZM301.05 429.8a3.5 3.5 0 1 0-7 0 3.5 3.5 0 0 0 7 0ZM301.05 403.15a3.5 3.5 0 1 0-7 0 3.5 3.5 0 0 0 7 0ZM301.05 376.5a3.5 3.5 0 1 0-7 0 3.5 3.5 0 0 0 7 0ZM301.05 349.85a3.5 3.5 0 1 0-7 0 3.5 3.5 0 0 0 7 0ZM301.05 323.2a3.5 3.5 0 1 0-7 0 3.5 3.5 0 0 0 7 0ZM301.05 296.54a3.5 3.5 0 1 0-7 0 3.5 3.5 0 0 0 7 0ZM301.05 269.89a3.5 3.5 0 1 0-7 0 3.5 3.5 0 0 0 7 0ZM301.05 243.23a3.5 3.5 0 1 0-7 0 3.5 3.5 0 0 0 7 0ZM301.05 216.58a3.5 3.5 0 1 0-7 0 3.5 3.5 0 0 0 7 0ZM301.05 189.93a3.5 3.5 0 1 0-7 0 3.5 3.5 0 0 0 7 0ZM301.05 163.28a3.5 3.5 0 1 0-7 0 3.5 3.5 0 0 0 7 0ZM301.05 136.62a3.5 3.5 0 1 0-7 0 3.5 3.5 0 0 0 7 0ZM301.05 110.15a3.5 3.5 0 1 0-7 0 3.5 3.5 0 0 0 7 0ZM327.86 483.11a3.5 3.5 0 1 0-7 0 3.5 3.5 0 0 0 7 0ZM327.86 456.46a3.5 3.5 0 1 0-7 0 3.5 3.5 0 0 0 7 0ZM327.86 429.8a3.5 3.5 0 1 0-7 0 3.5 3.5 0 0 0 7 0ZM327.86 403.15a3.5 3.5 0 1 0-7 0 3.5 3.5 0 0 0 7 0ZM327.86 376.5a3.5 3.5 0 1 0-7 0 3.5 3.5 0 0 0 7 0ZM327.86 349.85a3.5 3.5 0 1 0-7 0 3.5 3.5 0 0 0 7 0ZM327.86 323.2a3.5 3.5 0 1 0-7 0 3.5 3.5 0 0 0 7 0ZM327.86 296.54a3.5 3.5 0 1 0-7 0 3.5 3.5 0 0 0 7 0ZM327.86 269.89a3.5 3.5 0 1 0-7 0 3.5 3.5 0 0 0 7 0ZM327.86 243.23a3.5 3.5 0 1 0-7 0 3.5 3.5 0 0 0 7 0ZM327.86 216.58a3.5 3.5 0 1 0-7 0 3.5 3.5 0 0 0 7 0ZM327.86 189.93a3.5 3.5 0 1 0-7 0 3.5 3.5 0 0 0 7 0ZM327.86 163.28a3.5 3.5 0 1 0-7 0 3.5 3.5 0 0 0 7 0ZM327.86 136.62a3.5 3.5 0 1 0-7 0 3.5 3.5 0 0 0 7 0ZM327.86 110.15a3.5 3.5 0 1 0-7 0 3.5 3.5 0 0 0 7 0ZM354.5 483.11a3.5 3.5 0 1 0-7 0 3.5 3.5 0 0 0 7 0ZM354.5 456.46a3.5 3.5 0 1 0-7 0 3.5 3.5 0 0 0 7 0ZM354.5 429.8a3.5 3.5 0 1 0-7 0 3.5 3.5 0 0 0 7 0ZM354.5 403.15a3.5 3.5 0 1 0-7 0 3.5 3.5 0 0 0 7 0ZM354.5 376.5a3.5 3.5 0 1 0-7 0 3.5 3.5 0 0 0 7 0ZM354.5 349.85a3.5 3.5 0 1 0-7 0 3.5 3.5 0 0 0 7 0ZM354.5 323.2a3.5 3.5 0 1 0-7 0 3.5 3.5 0 0 0 7 0ZM354.5 296.54a3.5 3.5 0 1 0-7 0 3.5 3.5 0 0 0 7 0ZM354.5 269.89a3.5 3.5 0 1 0-7 0 3.5 3.5 0 0 0 7 0ZM354.5 243.23a3.5 3.5 0 1 0-7 0 3.5 3.5 0 0 0 7 0ZM354.5 216.58a3.5 3.5 0 1 0-7 0 3.5 3.5 0 0 0 7 0ZM354.5 189.93a3.5 3.5 0 1 0-7 0 3.5 3.5 0 0 0 7 0ZM354.5 163.28a3.5 3.5 0 1 0-7 0 3.5 3.5 0 0 0 7 0ZM354.5 136.62a3.5 3.5 0 1 0-7 0 3.5 3.5 0 0 0 7 0ZM354.5 110.15a3.5 3.5 0 1 0-7 0 3.5 3.5 0 0 0 7 0ZM381.3 483.11a3.5 3.5 0 1 0-7 0 3.5 3.5 0 0 0 7 0ZM381.3 456.46a3.5 3.5 0 1 0-7 0 3.5 3.5 0 0 0 7 0ZM381.3 429.8a3.5 3.5 0 1 0-7 0 3.5 3.5 0 0 0 7 0ZM381.3 403.15a3.5 3.5 0 1 0-7 0 3.5 3.5 0 0 0 7 0ZM381.3 376.5a3.5 3.5 0 1 0-7 0 3.5 3.5 0 0 0 7 0ZM381.3 349.85a3.5 3.5 0 1 0-7 0 3.5 3.5 0 0 0 7 0ZM381.3 323.2a3.5 3.5 0 1 0-7 0 3.5 3.5 0 0 0 7 0ZM381.3 296.54a3.5 3.5 0 1 0-7 0 3.5 3.5 0 0 0 7 0ZM381.3 269.89a3.5 3.5 0 1 0-7 0 3.5 3.5 0 0 0 7 0ZM381.3 243.23a3.5 3.5 0 1 0-7 0 3.5 3.5 0 0 0 7 0ZM381.3 216.58a3.5 3.5 0 1 0-7 0 3.5 3.5 0 0 0 7 0ZM381.3 189.93a3.5 3.5 0 1 0-7 0 3.5 3.5 0 0 0 7 0ZM381.3 163.28a3.5 3.5 0 1 0-7 0 3.5 3.5 0 0 0 7 0ZM381.3 136.62a3.5 3.5 0 1 0-7 0 3.5 3.5 0 0 0 7 0ZM381.3 110.15a3.5 3.5 0 1 0-7 0 3.5 3.5 0 0 0 7 0Z"/>
  <path fill="#93EA20" d="M7 110.11a3.5 3.5 0 1 0-7 0 3.5 3.5 0 0 0 7 0ZM7 83.46a3.5 3.5 0 1 0-7 0 3.5 3.5 0 0 0 7 0ZM7 56.8a3.5 3.5 0 1 0-7 0 3.5 3.5 0 0 0 7 0ZM7 30.15a3.5 3.5 0 1 0-7 0 3.5 3.5 0 0 0 7 0ZM7 3.5a3.5 3.5 0 1 0-7 0 3.5 3.5 0 0 0 7 0ZM33.81 110.11a3.5 3.5 0 1 0-7 0 3.5 3.5 0 0 0 7 0ZM33.81 83.46a3.5 3.5 0 1 0-7 0 3.5 3.5 0 0 0 7 0ZM33.81 56.8a3.5 3.5 0 1 0-7 0 3.5 3.5 0 0 0 7 0ZM33.81 30.15a3.5 3.5 0 1 0-7 0 3.5 3.5 0 0 0 7 0ZM33.81 3.5a3.5 3.5 0 1 0-7 0 3.5 3.5 0 0 0 7 0ZM60.45 110.11a3.5 3.5 0 1 0-7 0 3.5 3.5 0 0 0 7 0ZM60.45 83.46a3.5 3.5 0 1 0-7 0 3.5 3.5 0 0 0 7 0ZM60.45 56.8a3.5 3.5 0 1 0-7 0 3.5 3.5 0 0 0 7 0ZM60.45 30.15a3.5 3.5 0 1 0-7 0 3.5 3.5 0 0 0 7 0ZM60.45 3.5a3.5 3.5 0 1 0-7 0 3.5 3.5 0 0 0 7 0ZM87.26 110.11a3.5 3.5 0 1 0-7 0 3.5 3.5 0 0 0 7 0ZM87.26 83.46a3.5 3.5 0 1 0-7 0 3.5 3.5 0 0 0 7 0ZM87.26 56.8a3.5 3.5 0 1 0-7 0 3.5 3.5 0 0 0 7 0ZM87.26 30.15a3.5 3.5 0 1 0-7 0 3.5 3.5 0 0 0 7 0ZM87.26 3.5a3.5 3.5 0 1 0-7 0 3.5 3.5 0 0 0 7 0ZM113.9 110.11a3.5 3.5 0 1 0-7 0 3.5 3.5 0 0 0 7 0ZM113.9 83.46a3.5 3.5 0 1 0-7 0 3.5 3.5 0 0 0 7 0ZM113.9 56.8a3.5 3.5 0 1 0-7 0 3.5 3.5 0 0 0 7 0ZM113.9 30.15a3.5 3.5 0 1 0-7 0 3.5 3.5 0 0 0 7 0ZM113.9 3.5a3.5 3.5 0 1 0-7 0 3.5 3.5 0 0 0 7 0ZM140.7 110.11a3.5 3.5 0 1 0-7 0 3.5 3.5 0 0 0 7 0ZM140.7 83.46a3.5 3.5 0 1 0-7 0 3.5 3.5 0 0 0 7 0ZM140.7 56.8a3.5 3.5 0 1 0-7 0 3.5 3.5 0 0 0 7 0ZM140.7 30.15a3.5 3.5 0 1 0-7 0 3.5 3.5 0 0 0 7 0ZM140.7 3.5a3.5 3.5 0 1 0-7 0 3.5 3.5 0 0 0 7 0ZM167.34 110.11a3.5 3.5 0 1 0-7 0 3.5 3.5 0 0 0 7 0ZM167.34 83.46a3.5 3.5 0 1 0-7 0 3.5 3.5 0 0 0 7 0ZM167.34 56.8a3.5 3.5 0 1 0-7 0 3.5 3.5 0 0 0 7 0ZM167.34 30.15a3.5 3.5 0 1 0-7 0 3.5 3.5 0 0 0 7 0ZM167.34 3.5a3.5 3.5 0 1 0-7 0 3.5 3.5 0 0 0 7 0ZM194.15 110.11a3.5 3.5 0 1 0-7 0 3.5 3.5 0 0 0 7 0ZM194.15 83.46a3.5 3.5 0 1 0-7 0 3.5 3.5 0 0 0 7 0ZM194.15 56.8a3.5 3.5 0 1 0-7 0 3.5 3.5 0 0 0 7 0ZM194.15 30.15a3.5 3.5 0 1 0-7 0 3.5 3.5 0 0 0 7 0ZM194.15 3.5a3.5 3.5 0 1 0-7 0 3.5 3.5 0 0 0 7 0ZM220.79 110.11a3.5 3.5 0 1 0-7 0 3.5 3.5 0 0 0 7 0ZM220.79 83.46a3.5 3.5 0 1 0-7 0 3.5 3.5 0 0 0 7 0ZM220.79 56.8a3.5 3.5 0 1 0-7 0 3.5 3.5 0 0 0 7 0ZM220.79 30.15a3.5 3.5 0 1 0-7 0 3.5 3.5 0 0 0 7 0ZM220.79 3.5a3.5 3.5 0 1 0-7 0 3.5 3.5 0 0 0 7 0ZM247.6 110.11a3.5 3.5 0 1 0-7 0 3.5 3.5 0 0 0 7 0ZM247.6 83.46a3.5 3.5 0 1 0-7 0 3.5 3.5 0 0 0 7 0ZM247.6 56.8a3.5 3.5 0 1 0-7 0 3.5 3.5 0 0 0 7 0ZM247.6 30.15a3.5 3.5 0 1 0-7 0 3.5 3.5 0 0 0 7 0ZM247.6 3.5a3.5 3.5 0 1 0-7 0 3.5 3.5 0 0 0 7 0ZM274.41 110.11a3.5 3.5 0 1 0-7 0 3.5 3.5 0 0 0 7 0ZM274.41 83.46a3.5 3.5 0 1 0-7 0 3.5 3.5 0 0 0 7 0ZM274.41 56.8a3.5 3.5 0 1 0-7 0 3.5 3.5 0 0 0 7 0ZM274.41 30.15a3.5 3.5 0 1 0-7 0 3.5 3.5 0 0 0 7 0ZM274.41 3.5a3.5 3.5 0 1 0-7 0 3.5 3.5 0 0 0 7 0ZM301.05 110.11a3.5 3.5 0 1 0-7 0 3.5 3.5 0 0 0 7 0ZM301.05 83.46a3.5 3.5 0 1 0-7 0 3.5 3.5 0 0 0 7 0ZM301.05 56.8a3.5 3.5 0 1 0-7 0 3.5 3.5 0 0 0 7 0ZM301.05 30.15a3.5 3.5 0 1 0-7 0 3.5 3.5 0 0 0 7 0ZM301.05 3.5a3.5 3.5 0 1 0-7 0 3.5 3.5 0 0 0 7 0ZM327.86 110.11a3.5 3.5 0 1 0-7 0 3.5 3.5 0 0 0 7 0ZM327.86 83.46a3.5 3.5 0 1 0-7 0 3.5 3.5 0 0 0 7 0ZM327.86 56.8a3.5 3.5 0 1 0-7 0 3.5 3.5 0 0 0 7 0ZM327.86 30.15a3.5 3.5 0 1 0-7 0 3.5 3.5 0 0 0 7 0ZM327.86 3.5a3.5 3.5 0 1 0-7 0 3.5 3.5 0 0 0 7 0ZM354.5 110.11a3.5 3.5 0 1 0-7 0 3.5 3.5 0 0 0 7 0ZM354.5 83.46a3.5 3.5 0 1 0-7 0 3.5 3.5 0 0 0 7 0ZM354.5 56.8a3.5 3.5 0 1 0-7 0 3.5 3.5 0 0 0 7 0ZM354.5 30.15a3.5 3.5 0 1 0-7 0 3.5 3.5 0 0 0 7 0ZM354.5 3.5a3.5 3.5 0 1 0-7 0 3.5 3.5 0 0 0 7 0ZM381.3 110.11a3.5 3.5 0 1 0-7 0 3.5 3.5 0 0 0 7 0ZM381.3 83.46a3.5 3.5 0 1 0-7 0 3.5 3.5 0 0 0 7 0ZM381.3 56.8a3.5 3.5 0 1 0-7 0 3.5 3.5 0 0 0 7 0ZM381.3 30.15a3.5 3.5 0 1 0-7 0 3.5 3.5 0 0 0 7 0ZM381.3 3.5a3.5 3.5 0 1 0-7 0 3.5 3.5 0 0 0 7 0ZM7 963.11a3.5 3.5 0 1 0-7 0 3.5 3.5 0 0 0 7 0ZM7 936.46a3.5 3.5 0 1 0-7 0 3.5 3.5 0 0 0 7 0ZM7 909.8a3.5 3.5 0 1 0-7 0 3.5 3.5 0 0 0 7 0ZM7 883.15a3.5 3.5 0 1 0-7 0 3.5 3.5 0 0 0 7 0ZM7 856.5a3.5 3.5 0 1 0-7 0 3.5 3.5 0 0 0 7 0ZM7 829.85a3.5 3.5 0 1 0-7 0 3.5 3.5 0 0 0 7 0ZM7 803.2a3.5 3.5 0 1 0-7 0 3.5 3.5 0 0 0 7 0ZM7 776.54a3.5 3.5 0 1 0-7 0 3.5 3.5 0 0 0 7 0ZM7 749.89a3.5 3.5 0 1 0-7 0 3.5 3.5 0 0 0 7 0ZM7 723.23a3.5 3.5 0 1 0-7 0 3.5 3.5 0 0 0 7 0ZM7 696.58a3.5 3.5 0 1 0-7 0 3.5 3.5 0 0 0 7 0ZM7 669.93a3.5 3.5 0 1 0-7 0 3.5 3.5 0 0 0 7 0ZM7 643.27a3.5 3.5 0 1 0-7 0 3.5 3.5 0 0 0 7 0ZM7 616.62a3.5 3.5 0 1 0-7 0 3.5 3.5 0 0 0 7 0ZM7 590.15a3.5 3.5 0 1 0-7 0 3.5 3.5 0 0 0 7 0ZM33.81 963.11a3.5 3.5 0 1 0-7 0 3.5 3.5 0 0 0 7 0ZM33.81 936.46a3.5 3.5 0 1 0-7 0 3.5 3.5 0 0 0 7 0ZM33.81 909.8a3.5 3.5 0 1 0-7 0 3.5 3.5 0 0 0 7 0ZM33.81 883.15a3.5 3.5 0 1 0-7 0 3.5 3.5 0 0 0 7 0ZM33.81 856.5a3.5 3.5 0 1 0-7 0 3.5 3.5 0 0 0 7 0ZM33.81 829.85a3.5 3.5 0 1 0-7 0 3.5 3.5 0 0 0 7 0ZM33.81 803.2a3.5 3.5 0 1 0-7 0 3.5 3.5 0 0 0 7 0ZM33.81 776.54a3.5 3.5 0 1 0-7 0 3.5 3.5 0 0 0 7 0ZM33.81 749.89a3.5 3.5 0 1 0-7 0 3.5 3.5 0 0 0 7 0ZM33.81 723.23a3.5 3.5 0 1 0-7 0 3.5 3.5 0 0 0 7 0ZM33.81 696.58a3.5 3.5 0 1 0-7 0 3.5 3.5 0 0 0 7 0ZM33.81 669.93a3.5 3.5 0 1 0-7 0 3.5 3.5 0 0 0 7 0ZM33.81 643.27a3.5 3.5 0 1 0-7 0 3.5 3.5 0 0 0 7 0ZM33.81 616.62a3.5 3.5 0 1 0-7 0 3.5 3.5 0 0 0 7 0ZM33.81 590.15a3.5 3.5 0 1 0-7 0 3.5 3.5 0 0 0 7 0ZM60.45 963.11a3.5 3.5 0 1 0-7 0 3.5 3.5 0 0 0 7 0ZM60.45 936.46a3.5 3.5 0 1 0-7 0 3.5 3.5 0 0 0 7 0ZM60.45 909.8a3.5 3.5 0 1 0-7 0 3.5 3.5 0 0 0 7 0ZM60.45 883.15a3.5 3.5 0 1 0-7 0 3.5 3.5 0 0 0 7 0ZM60.45 856.5a3.5 3.5 0 1 0-7 0 3.5 3.5 0 0 0 7 0ZM60.45 829.85a3.5 3.5 0 1 0-7 0 3.5 3.5 0 0 0 7 0ZM60.45 803.2a3.5 3.5 0 1 0-7 0 3.5 3.5 0 0 0 7 0ZM60.45 776.54a3.5 3.5 0 1 0-7 0 3.5 3.5 0 0 0 7 0ZM60.45 749.89a3.5 3.5 0 1 0-7 0 3.5 3.5 0 0 0 7 0ZM60.45 723.23a3.5 3.5 0 1 0-7 0 3.5 3.5 0 0 0 7 0ZM60.45 696.58a3.5 3.5 0 1 0-7 0 3.5 3.5 0 0 0 7 0ZM60.45 669.93a3.5 3.5 0 1 0-7 0 3.5 3.5 0 0 0 7 0ZM60.45 643.27a3.5 3.5 0 1 0-7 0 3.5 3.5 0 0 0 7 0ZM60.45 616.62a3.5 3.5 0 1 0-7 0 3.5 3.5 0 0 0 7 0ZM60.45 590.15a3.5 3.5 0 1 0-7 0 3.5 3.5 0 0 0 7 0ZM87.26 963.11a3.5 3.5 0 1 0-7 0 3.5 3.5 0 0 0 7 0ZM87.26 936.46a3.5 3.5 0 1 0-7 0 3.5 3.5 0 0 0 7 0ZM87.26 909.8a3.5 3.5 0 1 0-7 0 3.5 3.5 0 0 0 7 0ZM87.26 883.15a3.5 3.5 0 1 0-7 0 3.5 3.5 0 0 0 7 0ZM87.26 856.5a3.5 3.5 0 1 0-7 0 3.5 3.5 0 0 0 7 0ZM87.26 829.85a3.5 3.5 0 1 0-7 0 3.5 3.5 0 0 0 7 0ZM87.26 803.2a3.5 3.5 0 1 0-7 0 3.5 3.5 0 0 0 7 0ZM87.26 776.54a3.5 3.5 0 1 0-7 0 3.5 3.5 0 0 0 7 0ZM87.26 749.89a3.5 3.5 0 1 0-7 0 3.5 3.5 0 0 0 7 0ZM87.26 723.23a3.5 3.5 0 1 0-7 0 3.5 3.5 0 0 0 7 0ZM87.26 696.58a3.5 3.5 0 1 0-7 0 3.5 3.5 0 0 0 7 0ZM87.26 669.93a3.5 3.5 0 1 0-7 0 3.5 3.5 0 0 0 7 0ZM87.26 643.27a3.5 3.5 0 1 0-7 0 3.5 3.5 0 0 0 7 0ZM87.26 616.62a3.5 3.5 0 1 0-7 0 3.5 3.5 0 0 0 7 0ZM87.26 590.15a3.5 3.5 0 1 0-7 0 3.5 3.5 0 0 0 7 0ZM113.9 963.11a3.5 3.5 0 1 0-7 0 3.5 3.5 0 0 0 7 0ZM113.9 936.46a3.5 3.5 0 1 0-7 0 3.5 3.5 0 0 0 7 0ZM113.9 909.8a3.5 3.5 0 1 0-7 0 3.5 3.5 0 0 0 7 0ZM113.9 883.15a3.5 3.5 0 1 0-7 0 3.5 3.5 0 0 0 7 0ZM113.9 856.5a3.5 3.5 0 1 0-7 0 3.5 3.5 0 0 0 7 0ZM113.9 829.85a3.5 3.5 0 1 0-7 0 3.5 3.5 0 0 0 7 0ZM113.9 803.2a3.5 3.5 0 1 0-7 0 3.5 3.5 0 0 0 7 0ZM113.9 776.54a3.5 3.5 0 1 0-7 0 3.5 3.5 0 0 0 7 0ZM113.9 749.89a3.5 3.5 0 1 0-7 0 3.5 3.5 0 0 0 7 0ZM113.9 723.23a3.5 3.5 0 1 0-7 0 3.5 3.5 0 0 0 7 0ZM113.9 696.58a3.5 3.5 0 1 0-7 0 3.5 3.5 0 0 0 7 0ZM113.9 669.93a3.5 3.5 0 1 0-7 0 3.5 3.5 0 0 0 7 0ZM113.9 643.27a3.5 3.5 0 1 0-7 0 3.5 3.5 0 0 0 7 0ZM113.9 616.62a3.5 3.5 0 1 0-7 0 3.5 3.5 0 0 0 7 0ZM113.9 590.15a3.5 3.5 0 1 0-7 0 3.5 3.5 0 0 0 7 0ZM140.7 963.11a3.5 3.5 0 1 0-7 0 3.5 3.5 0 0 0 7 0ZM140.7 936.46a3.5 3.5 0 1 0-7 0 3.5 3.5 0 0 0 7 0ZM140.7 909.8a3.5 3.5 0 1 0-7 0 3.5 3.5 0 0 0 7 0ZM140.7 883.15a3.5 3.5 0 1 0-7 0 3.5 3.5 0 0 0 7 0ZM140.7 856.5a3.5 3.5 0 1 0-7 0 3.5 3.5 0 0 0 7 0ZM140.7 829.85a3.5 3.5 0 1 0-7 0 3.5 3.5 0 0 0 7 0ZM140.7 803.2a3.5 3.5 0 1 0-7 0 3.5 3.5 0 0 0 7 0ZM140.7 776.54a3.5 3.5 0 1 0-7 0 3.5 3.5 0 0 0 7 0ZM140.7 749.89a3.5 3.5 0 1 0-7 0 3.5 3.5 0 0 0 7 0ZM140.7 723.23a3.5 3.5 0 1 0-7 0 3.5 3.5 0 0 0 7 0ZM140.7 696.58a3.5 3.5 0 1 0-7 0 3.5 3.5 0 0 0 7 0ZM140.7 669.93a3.5 3.5 0 1 0-7 0 3.5 3.5 0 0 0 7 0ZM140.7 643.27a3.5 3.5 0 1 0-7 0 3.5 3.5 0 0 0 7 0ZM140.7 616.62a3.5 3.5 0 1 0-7 0 3.5 3.5 0 0 0 7 0ZM140.7 590.15a3.5 3.5 0 1 0-7 0 3.5 3.5 0 0 0 7 0ZM167.34 963.11a3.5 3.5 0 1 0-7 0 3.5 3.5 0 0 0 7 0ZM167.34 936.46a3.5 3.5 0 1 0-7 0 3.5 3.5 0 0 0 7 0ZM167.34 909.8a3.5 3.5 0 1 0-7 0 3.5 3.5 0 0 0 7 0ZM167.34 883.15a3.5 3.5 0 1 0-7 0 3.5 3.5 0 0 0 7 0ZM167.34 856.5a3.5 3.5 0 1 0-7 0 3.5 3.5 0 0 0 7 0ZM167.34 829.85a3.5 3.5 0 1 0-7 0 3.5 3.5 0 0 0 7 0ZM167.34 803.2a3.5 3.5 0 1 0-7 0 3.5 3.5 0 0 0 7 0ZM167.34 776.54a3.5 3.5 0 1 0-7 0 3.5 3.5 0 0 0 7 0ZM167.34 749.89a3.5 3.5 0 1 0-7 0 3.5 3.5 0 0 0 7 0ZM167.34 723.23a3.5 3.5 0 1 0-7 0 3.5 3.5 0 0 0 7 0ZM167.34 696.58a3.5 3.5 0 1 0-7 0 3.5 3.5 0 0 0 7 0ZM167.34 669.93a3.5 3.5 0 1 0-7 0 3.5 3.5 0 0 0 7 0ZM167.34 643.27a3.5 3.5 0 1 0-7 0 3.5 3.5 0 0 0 7 0ZM167.34 616.62a3.5 3.5 0 1 0-7 0 3.5 3.5 0 0 0 7 0ZM167.34 590.15a3.5 3.5 0 1 0-7 0 3.5 3.5 0 0 0 7 0ZM194.15 963.11a3.5 3.5 0 1 0-7 0 3.5 3.5 0 0 0 7 0ZM194.15 936.46a3.5 3.5 0 1 0-7 0 3.5 3.5 0 0 0 7 0ZM194.15 909.8a3.5 3.5 0 1 0-7 0 3.5 3.5 0 0 0 7 0ZM194.15 883.15a3.5 3.5 0 1 0-7 0 3.5 3.5 0 0 0 7 0ZM194.15 856.5a3.5 3.5 0 1 0-7 0 3.5 3.5 0 0 0 7 0ZM194.15 829.85a3.5 3.5 0 1 0-7 0 3.5 3.5 0 0 0 7 0ZM194.15 803.2a3.5 3.5 0 1 0-7 0 3.5 3.5 0 0 0 7 0ZM194.15 776.54a3.5 3.5 0 1 0-7 0 3.5 3.5 0 0 0 7 0ZM194.15 749.89a3.5 3.5 0 1 0-7 0 3.5 3.5 0 0 0 7 0ZM194.15 723.23a3.5 3.5 0 1 0-7 0 3.5 3.5 0 0 0 7 0ZM194.15 696.58a3.5 3.5 0 1 0-7 0 3.5 3.5 0 0 0 7 0ZM194.15 669.93a3.5 3.5 0 1 0-7 0 3.5 3.5 0 0 0 7 0ZM194.15 643.27a3.5 3.5 0 1 0-7 0 3.5 3.5 0 0 0 7 0ZM194.15 616.62a3.5 3.5 0 1 0-7 0 3.5 3.5 0 0 0 7 0ZM194.15 590.15a3.5 3.5 0 1 0-7 0 3.5 3.5 0 0 0 7 0ZM220.79 963.11a3.5 3.5 0 1 0-7 0 3.5 3.5 0 0 0 7 0ZM220.79 936.46a3.5 3.5 0 1 0-7 0 3.5 3.5 0 0 0 7 0ZM220.79 909.8a3.5 3.5 0 1 0-7 0 3.5 3.5 0 0 0 7 0ZM220.79 883.15a3.5 3.5 0 1 0-7 0 3.5 3.5 0 0 0 7 0ZM220.79 856.5a3.5 3.5 0 1 0-7 0 3.5 3.5 0 0 0 7 0ZM220.79 829.85a3.5 3.5 0 1 0-7 0 3.5 3.5 0 0 0 7 0ZM220.79 803.2a3.5 3.5 0 1 0-7 0 3.5 3.5 0 0 0 7 0ZM220.79 776.54a3.5 3.5 0 1 0-7 0 3.5 3.5 0 0 0 7 0ZM220.79 749.89a3.5 3.5 0 1 0-7 0 3.5 3.5 0 0 0 7 0ZM220.79 723.23a3.5 3.5 0 1 0-7 0 3.5 3.5 0 0 0 7 0ZM220.79 696.58a3.5 3.5 0 1 0-7 0 3.5 3.5 0 0 0 7 0ZM220.79 669.93a3.5 3.5 0 1 0-7 0 3.5 3.5 0 0 0 7 0ZM220.79 643.27a3.5 3.5 0 1 0-7 0 3.5 3.5 0 0 0 7 0ZM220.79 616.62a3.5 3.5 0 1 0-7 0 3.5 3.5 0 0 0 7 0ZM220.79 590.15a3.5 3.5 0 1 0-7 0 3.5 3.5 0 0 0 7 0ZM247.6 963.11a3.5 3.5 0 1 0-7 0 3.5 3.5 0 0 0 7 0ZM247.6 936.46a3.5 3.5 0 1 0-7 0 3.5 3.5 0 0 0 7 0ZM247.6 909.8a3.5 3.5 0 1 0-7 0 3.5 3.5 0 0 0 7 0ZM247.6 883.15a3.5 3.5 0 1 0-7 0 3.5 3.5 0 0 0 7 0ZM247.6 856.5a3.5 3.5 0 1 0-7 0 3.5 3.5 0 0 0 7 0ZM247.6 829.85a3.5 3.5 0 1 0-7 0 3.5 3.5 0 0 0 7 0ZM247.6 803.2a3.5 3.5 0 1 0-7 0 3.5 3.5 0 0 0 7 0ZM247.6 776.54a3.5 3.5 0 1 0-7 0 3.5 3.5 0 0 0 7 0ZM247.6 749.89a3.5 3.5 0 1 0-7 0 3.5 3.5 0 0 0 7 0ZM247.6 723.23a3.5 3.5 0 1 0-7 0 3.5 3.5 0 0 0 7 0ZM247.6 696.58a3.5 3.5 0 1 0-7 0 3.5 3.5 0 0 0 7 0ZM247.6 669.93a3.5 3.5 0 1 0-7 0 3.5 3.5 0 0 0 7 0ZM247.6 643.27a3.5 3.5 0 1 0-7 0 3.5 3.5 0 0 0 7 0ZM247.6 616.62a3.5 3.5 0 1 0-7 0 3.5 3.5 0 0 0 7 0ZM247.6 590.15a3.5 3.5 0 1 0-7 0 3.5 3.5 0 0 0 7 0ZM274.41 963.11a3.5 3.5 0 1 0-7 0 3.5 3.5 0 0 0 7 0ZM274.41 936.46a3.5 3.5 0 1 0-7 0 3.5 3.5 0 0 0 7 0ZM274.41 909.8a3.5 3.5 0 1 0-7 0 3.5 3.5 0 0 0 7 0ZM274.41 883.15a3.5 3.5 0 1 0-7 0 3.5 3.5 0 0 0 7 0ZM274.41 856.5a3.5 3.5 0 1 0-7 0 3.5 3.5 0 0 0 7 0ZM274.41 829.85a3.5 3.5 0 1 0-7 0 3.5 3.5 0 0 0 7 0ZM274.41 803.2a3.5 3.5 0 1 0-7 0 3.5 3.5 0 0 0 7 0ZM274.41 776.54a3.5 3.5 0 1 0-7 0 3.5 3.5 0 0 0 7 0ZM274.41 749.89a3.5 3.5 0 1 0-7 0 3.5 3.5 0 0 0 7 0ZM274.41 723.23a3.5 3.5 0 1 0-7 0 3.5 3.5 0 0 0 7 0ZM274.41 696.58a3.5 3.5 0 1 0-7 0 3.5 3.5 0 0 0 7 0ZM274.41 669.93a3.5 3.5 0 1 0-7 0 3.5 3.5 0 0 0 7 0ZM274.41 643.27a3.5 3.5 0 1 0-7 0 3.5 3.5 0 0 0 7 0ZM274.41 616.62a3.5 3.5 0 1 0-7 0 3.5 3.5 0 0 0 7 0ZM274.41 590.15a3.5 3.5 0 1 0-7 0 3.5 3.5 0 0 0 7 0ZM301.05 963.11a3.5 3.5 0 1 0-7 0 3.5 3.5 0 0 0 7 0ZM301.05 936.46a3.5 3.5 0 1 0-7 0 3.5 3.5 0 0 0 7 0ZM301.05 909.8a3.5 3.5 0 1 0-7 0 3.5 3.5 0 0 0 7 0ZM301.05 883.15a3.5 3.5 0 1 0-7 0 3.5 3.5 0 0 0 7 0ZM301.05 856.5a3.5 3.5 0 1 0-7 0 3.5 3.5 0 0 0 7 0ZM301.05 829.85a3.5 3.5 0 1 0-7 0 3.5 3.5 0 0 0 7 0ZM301.05 803.2a3.5 3.5 0 1 0-7 0 3.5 3.5 0 0 0 7 0ZM301.05 776.54a3.5 3.5 0 1 0-7 0 3.5 3.5 0 0 0 7 0ZM301.05 749.89a3.5 3.5 0 1 0-7 0 3.5 3.5 0 0 0 7 0ZM301.05 723.23a3.5 3.5 0 1 0-7 0 3.5 3.5 0 0 0 7 0ZM301.05 696.58a3.5 3.5 0 1 0-7 0 3.5 3.5 0 0 0 7 0ZM301.05 669.93a3.5 3.5 0 1 0-7 0 3.5 3.5 0 0 0 7 0ZM301.05 643.27a3.5 3.5 0 1 0-7 0 3.5 3.5 0 0 0 7 0ZM301.05 616.62a3.5 3.5 0 1 0-7 0 3.5 3.5 0 0 0 7 0ZM301.05 590.15a3.5 3.5 0 1 0-7 0 3.5 3.5 0 0 0 7 0ZM327.86 963.11a3.5 3.5 0 1 0-7 0 3.5 3.5 0 0 0 7 0ZM327.86 936.46a3.5 3.5 0 1 0-7 0 3.5 3.5 0 0 0 7 0ZM327.86 909.8a3.5 3.5 0 1 0-7 0 3.5 3.5 0 0 0 7 0ZM327.86 883.15a3.5 3.5 0 1 0-7 0 3.5 3.5 0 0 0 7 0ZM327.86 856.5a3.5 3.5 0 1 0-7 0 3.5 3.5 0 0 0 7 0ZM327.86 829.85a3.5 3.5 0 1 0-7 0 3.5 3.5 0 0 0 7 0ZM327.86 803.2a3.5 3.5 0 1 0-7 0 3.5 3.5 0 0 0 7 0ZM327.86 776.54a3.5 3.5 0 1 0-7 0 3.5 3.5 0 0 0 7 0ZM327.86 749.89a3.5 3.5 0 1 0-7 0 3.5 3.5 0 0 0 7 0ZM327.86 723.23a3.5 3.5 0 1 0-7 0 3.5 3.5 0 0 0 7 0ZM327.86 696.58a3.5 3.5 0 1 0-7 0 3.5 3.5 0 0 0 7 0ZM327.86 669.93a3.5 3.5 0 1 0-7 0 3.5 3.5 0 0 0 7 0ZM327.86 643.27a3.5 3.5 0 1 0-7 0 3.5 3.5 0 0 0 7 0ZM327.86 616.62a3.5 3.5 0 1 0-7 0 3.5 3.5 0 0 0 7 0ZM327.86 590.15a3.5 3.5 0 1 0-7 0 3.5 3.5 0 0 0 7 0ZM354.5 963.11a3.5 3.5 0 1 0-7 0 3.5 3.5 0 0 0 7 0ZM354.5 936.46a3.5 3.5 0 1 0-7 0 3.5 3.5 0 0 0 7 0ZM354.5 909.8a3.5 3.5 0 1 0-7 0 3.5 3.5 0 0 0 7 0ZM354.5 883.15a3.5 3.5 0 1 0-7 0 3.5 3.5 0 0 0 7 0ZM354.5 856.5a3.5 3.5 0 1 0-7 0 3.5 3.5 0 0 0 7 0ZM354.5 829.85a3.5 3.5 0 1 0-7 0 3.5 3.5 0 0 0 7 0ZM354.5 803.2a3.5 3.5 0 1 0-7 0 3.5 3.5 0 0 0 7 0ZM354.5 776.54a3.5 3.5 0 1 0-7 0 3.5 3.5 0 0 0 7 0ZM354.5 749.89a3.5 3.5 0 1 0-7 0 3.5 3.5 0 0 0 7 0ZM354.5 723.23a3.5 3.5 0 1 0-7 0 3.5 3.5 0 0 0 7 0ZM354.5 696.58a3.5 3.5 0 1 0-7 0 3.5 3.5 0 0 0 7 0ZM354.5 669.93a3.5 3.5 0 1 0-7 0 3.5 3.5 0 0 0 7 0ZM354.5 643.27a3.5 3.5 0 1 0-7 0 3.5 3.5 0 0 0 7 0ZM354.5 616.62a3.5 3.5 0 1 0-7 0 3.5 3.5 0 0 0 7 0ZM354.5 590.15a3.5 3.5 0 1 0-7 0 3.5 3.5 0 0 0 7 0ZM381.3 963.11a3.5 3.5 0 1 0-7 0 3.5 3.5 0 0 0 7 0ZM381.3 936.46a3.5 3.5 0 1 0-7 0 3.5 3.5 0 0 0 7 0ZM381.3 909.8a3.5 3.5 0 1 0-7 0 3.5 3.5 0 0 0 7 0ZM381.3 883.15a3.5 3.5 0 1 0-7 0 3.5 3.5 0 0 0 7 0ZM381.3 856.5a3.5 3.5 0 1 0-7 0 3.5 3.5 0 0 0 7 0ZM381.3 829.85a3.5 3.5 0 1 0-7 0 3.5 3.5 0 0 0 7 0ZM381.3 803.2a3.5 3.5 0 1 0-7 0 3.5 3.5 0 0 0 7 0ZM381.3 776.54a3.5 3.5 0 1 0-7 0 3.5 3.5 0 0 0 7 0ZM381.3 749.89a3.5 3.5 0 1 0-7 0 3.5 3.5 0 0 0 7 0ZM381.3 723.23a3.5 3.5 0 1 0-7 0 3.5 3.5 0 0 0 7 0ZM381.3 696.58a3.5 3.5 0 1 0-7 0 3.5 3.5 0 0 0 7 0ZM381.3 669.93a3.5 3.5 0 1 0-7 0 3.5 3.5 0 0 0 7 0ZM381.3 643.27a3.5 3.5 0 1 0-7 0 3.5 3.5 0 0 0 7 0ZM381.3 616.62a3.5 3.5 0 1 0-7 0 3.5 3.5 0 0 0 7 0ZM381.3 590.15a3.5 3.5 0 1 0-7 0 3.5 3.5 0 0 0 7 0Z"/>
  <path fill="#93EA20" d="M7 590.11a3.5 3.5 0 1 0-7 0 3.5 3.5 0 0 0 7 0ZM7 563.46a3.5 3.5 0 1 0-7 0 3.5 3.5 0 0 0 7 0ZM7 536.8a3.5 3.5 0 1 0-7 0 3.5 3.5 0 0 0 7 0ZM7 510.15a3.5 3.5 0 1 0-7 0 3.5 3.5 0 0 0 7 0ZM7 483.5a3.5 3.5 0 1 0-7 0 3.5 3.5 0 0 0 7 0ZM33.81 590.11a3.5 3.5 0 1 0-7 0 3.5 3.5 0 0 0 7 0ZM33.81 563.46a3.5 3.5 0 1 0-7 0 3.5 3.5 0 0 0 7 0ZM33.81 536.8a3.5 3.5 0 1 0-7 0 3.5 3.5 0 0 0 7 0ZM33.81 510.15a3.5 3.5 0 1 0-7 0 3.5 3.5 0 0 0 7 0ZM33.81 483.5a3.5 3.5 0 1 0-7 0 3.5 3.5 0 0 0 7 0ZM60.45 590.11a3.5 3.5 0 1 0-7 0 3.5 3.5 0 0 0 7 0ZM60.45 563.46a3.5 3.5 0 1 0-7 0 3.5 3.5 0 0 0 7 0ZM60.45 536.8a3.5 3.5 0 1 0-7 0 3.5 3.5 0 0 0 7 0ZM60.45 510.15a3.5 3.5 0 1 0-7 0 3.5 3.5 0 0 0 7 0ZM60.45 483.5a3.5 3.5 0 1 0-7 0 3.5 3.5 0 0 0 7 0ZM87.26 590.11a3.5 3.5 0 1 0-7 0 3.5 3.5 0 0 0 7 0ZM87.26 563.46a3.5 3.5 0 1 0-7 0 3.5 3.5 0 0 0 7 0ZM87.26 536.8a3.5 3.5 0 1 0-7 0 3.5 3.5 0 0 0 7 0ZM87.26 510.15a3.5 3.5 0 1 0-7 0 3.5 3.5 0 0 0 7 0ZM87.26 483.5a3.5 3.5 0 1 0-7 0 3.5 3.5 0 0 0 7 0ZM113.9 590.11a3.5 3.5 0 1 0-7 0 3.5 3.5 0 0 0 7 0ZM113.9 563.46a3.5 3.5 0 1 0-7 0 3.5 3.5 0 0 0 7 0ZM113.9 536.8a3.5 3.5 0 1 0-7 0 3.5 3.5 0 0 0 7 0ZM113.9 510.15a3.5 3.5 0 1 0-7 0 3.5 3.5 0 0 0 7 0ZM113.9 483.5a3.5 3.5 0 1 0-7 0 3.5 3.5 0 0 0 7 0ZM140.7 590.11a3.5 3.5 0 1 0-7 0 3.5 3.5 0 0 0 7 0ZM140.7 563.46a3.5 3.5 0 1 0-7 0 3.5 3.5 0 0 0 7 0ZM140.7 536.8a3.5 3.5 0 1 0-7 0 3.5 3.5 0 0 0 7 0ZM140.7 510.15a3.5 3.5 0 1 0-7 0 3.5 3.5 0 0 0 7 0ZM140.7 483.5a3.5 3.5 0 1 0-7 0 3.5 3.5 0 0 0 7 0ZM167.34 590.11a3.5 3.5 0 1 0-7 0 3.5 3.5 0 0 0 7 0ZM167.34 563.46a3.5 3.5 0 1 0-7 0 3.5 3.5 0 0 0 7 0ZM167.34 536.8a3.5 3.5 0 1 0-7 0 3.5 3.5 0 0 0 7 0ZM167.34 510.15a3.5 3.5 0 1 0-7 0 3.5 3.5 0 0 0 7 0ZM167.34 483.5a3.5 3.5 0 1 0-7 0 3.5 3.5 0 0 0 7 0ZM194.15 590.11a3.5 3.5 0 1 0-7 0 3.5 3.5 0 0 0 7 0ZM194.15 563.46a3.5 3.5 0 1 0-7 0 3.5 3.5 0 0 0 7 0ZM194.15 536.8a3.5 3.5 0 1 0-7 0 3.5 3.5 0 0 0 7 0ZM194.15 510.15a3.5 3.5 0 1 0-7 0 3.5 3.5 0 0 0 7 0ZM194.15 483.5a3.5 3.5 0 1 0-7 0 3.5 3.5 0 0 0 7 0ZM220.79 590.11a3.5 3.5 0 1 0-7 0 3.5 3.5 0 0 0 7 0ZM220.79 563.46a3.5 3.5 0 1 0-7 0 3.5 3.5 0 0 0 7 0ZM220.79 536.8a3.5 3.5 0 1 0-7 0 3.5 3.5 0 0 0 7 0ZM220.79 510.15a3.5 3.5 0 1 0-7 0 3.5 3.5 0 0 0 7 0ZM220.79 483.5a3.5 3.5 0 1 0-7 0 3.5 3.5 0 0 0 7 0ZM247.6 590.11a3.5 3.5 0 1 0-7 0 3.5 3.5 0 0 0 7 0ZM247.6 563.46a3.5 3.5 0 1 0-7 0 3.5 3.5 0 0 0 7 0ZM247.6 536.8a3.5 3.5 0 1 0-7 0 3.5 3.5 0 0 0 7 0ZM247.6 510.15a3.5 3.5 0 1 0-7 0 3.5 3.5 0 0 0 7 0ZM247.6 483.5a3.5 3.5 0 1 0-7 0 3.5 3.5 0 0 0 7 0ZM274.41 590.11a3.5 3.5 0 1 0-7 0 3.5 3.5 0 0 0 7 0ZM274.41 563.46a3.5 3.5 0 1 0-7 0 3.5 3.5 0 0 0 7 0ZM274.41 536.8a3.5 3.5 0 1 0-7 0 3.5 3.5 0 0 0 7 0ZM274.41 510.15a3.5 3.5 0 1 0-7 0 3.5 3.5 0 0 0 7 0ZM274.41 483.5a3.5 3.5 0 1 0-7 0 3.5 3.5 0 0 0 7 0ZM301.05 590.11a3.5 3.5 0 1 0-7 0 3.5 3.5 0 0 0 7 0ZM301.05 563.46a3.5 3.5 0 1 0-7 0 3.5 3.5 0 0 0 7 0ZM301.05 536.8a3.5 3.5 0 1 0-7 0 3.5 3.5 0 0 0 7 0ZM301.05 510.15a3.5 3.5 0 1 0-7 0 3.5 3.5 0 0 0 7 0ZM301.05 483.5a3.5 3.5 0 1 0-7 0 3.5 3.5 0 0 0 7 0ZM327.86 590.11a3.5 3.5 0 1 0-7 0 3.5 3.5 0 0 0 7 0ZM327.86 563.46a3.5 3.5 0 1 0-7 0 3.5 3.5 0 0 0 7 0ZM327.86 536.8a3.5 3.5 0 1 0-7 0 3.5 3.5 0 0 0 7 0ZM327.86 510.15a3.5 3.5 0 1 0-7 0 3.5 3.5 0 0 0 7 0ZM327.86 483.5a3.5 3.5 0 1 0-7 0 3.5 3.5 0 0 0 7 0ZM354.5 590.11a3.5 3.5 0 1 0-7 0 3.5 3.5 0 0 0 7 0ZM354.5 563.46a3.5 3.5 0 1 0-7 0 3.5 3.5 0 0 0 7 0ZM354.5 536.8a3.5 3.5 0 1 0-7 0 3.5 3.5 0 0 0 7 0ZM354.5 510.15a3.5 3.5 0 1 0-7 0 3.5 3.5 0 0 0 7 0ZM354.5 483.5a3.5 3.5 0 1 0-7 0 3.5 3.5 0 0 0 7 0ZM381.3 590.11a3.5 3.5 0 1 0-7 0 3.5 3.5 0 0 0 7 0ZM381.3 563.46a3.5 3.5 0 1 0-7 0 3.5 3.5 0 0 0 7 0ZM381.3 536.8a3.5 3.5 0 1 0-7 0 3.5 3.5 0 0 0 7 0ZM381.3 510.15a3.5 3.5 0 1 0-7 0 3.5 3.5 0 0 0 7 0ZM381.3 483.5a3.5 3.5 0 1 0-7 0 3.5 3.5 0 0 0 7 0Z"/>
</symbol><symbol id="icon-close" viewBox="0 0 20 20"><path d="M.293 18.291a1 1 0 101.414 1.414L10 11.413l8.292 8.292a1 1 0 101.414-1.414l-8.292-8.292 8.292-8.292A1 1 0 1018.291.293L9.999 8.585 1.707.293A1 1 0 10.293 1.707L8.585 10 .293 18.291z"/></symbol><symbol id="icon-facebook" viewBox="0 0 24 24">
<path d="M12.5 4C17.1944 4 21 7.80558 21 12.5C21 16.7426 17.8917 20.2591 13.8281 20.8967V14.957H15.8087L16.1855 12.5H13.8281V10.9055C13.8281 10.2333 14.1574 9.57812 15.2133 9.57812H16.2852V7.48633C16.2852 7.48633 15.3124 7.32031 14.3824 7.32031C12.4409 7.32031 11.1719 8.49703 11.1719 10.6273V12.5H9.01367V14.957H11.1719V20.8967C7.10833 20.2591 4 16.7426 4 12.5C4 7.80558 7.80558 4 12.5 4Z"/>
</symbol><symbol id="icon-linkedin" viewBox="0 0 24 24">
  <path d="M21 12.77v6.16h-3.4V13.2c0-1.45-.5-2.4-1.75-2.4-.83 0-1.46.52-1.74 1.31-.07.3-.14.58-.14.87V19h-3.4s.06-9.7 0-10.79h3.4v1.6h.07v-.08a3.45 3.45 0 0 1 3.06-1.8c2.23 0 3.9 1.51 3.9 4.84ZM6.95 3C5.77 3 5 3.8 5 4.88c0 1.02.83 1.88 1.74 1.88h.14c1.18 0 1.95-.86 1.95-1.88C8.83 3.87 7.99 3 7.02 3h-.07ZM5.14 18.93h3.4V8.2h-3.4v10.72Z"/>
</symbol><symbol id="icon-play" viewBox="0 0 116 72">
<rect opacity="0.7" width="116" height="72" rx="5"/>
<path d="M80 36L47 55.0526L47 16.9474L80 36Z" fill="white"/>
</symbol><symbol id="icon-spiceworks" viewBox="0 0 24 24">
  <path d="M16.94 18.53c.22-.02 2.86-.74 4.06-2.07-1.54-.48-1.27-.98-2.37-2.23.88-1.66.58-2.43 1.95-3.64a12.48 12.48 0 0 0-3.32-.65h-.91l-.36.03h-.1c-.12 0-.22.02-.32.04h-.02c-.05 0-.1.03-.18.03-.02 0-.04 0-.07.02-.07.03-.15.03-.22.05a5.22 5.22 0 0 0-1.98.92c.73.26 1.3.77 1.64 1.4.37.62.49 1.36.37 2.1A3.24 3.24 0 0 0 16.89 13l.15-.36c.24-.7.34-1.37.27-2.24h.12c.66.02 1.42.17 2.32.4-.51.61-.7 1.16-.9 1.77-.12.36-.27.79-.52 1.27l-.07.1c-.39-.32-.73-.56-1.08-.77a3.45 3.45 0 0 1-1.98 1.7l-.24.1c-.07.22-.2.44-.34.68a3.08 3.08 0 0 1-.98.94l.15.04c.02 0 .02 0 .04.03l.1.02h.08c.02 0 .07 0 .1.03h.95c.1-.03.2-.03.29-.05h.05l.3-.08h.02c.1-.02.2-.04.3-.1h.02c.1-.02.2-.06.26-.09.13-.05.25-.12.35-.17a5.76 5.76 0 0 0 1.66-1.51l.05.07c.27.31.44.58.59.8.29.45.53.81 1.17 1.13-1.22.93-3.08 1.42-3.16 1.44l-.14.02a9.12 9.12 0 0 0-.4-1.42c-.4.17-.87.32-1.34.36-.44.08-1.07.1-1.61-.1l-.27-.09h-.1l-.2.07c-.02 0-.02.03-.04.03l-.22.07h-.03c-.07.02-.15.02-.22.05h-.1l-.2.02h-.04c-.07 0-.15 0-.22.03h-.32l.07.12.1.12c.08.07.15.14.22.24l.27.21c.32.25.69.44 1.08.58.14.07.32.12.46.17l.4.1.21.02h.05l.15.02h.07c.08 0 .15.03.22.03H15.6c.07 0 .14 0 .22-.03h.04l.2-.02h.05c.02 0 .07 0 .1-.02h.07c.05 0 .07-.03.12-.03h.03l.02.12c.1.7.1 1.33-.22 2.29-.76-.63-1.47-.7-2.15-.77a5.14 5.14 0 0 1-1-.17l-.08-.02c.27-.41.52-.8.64-1.16h-.05c-.17-.05-.34-.1-.49-.17a4.7 4.7 0 0 1-1.15-.62l-.3-.24-.26-.27c-.05-.05-.07-.1-.12-.14-.03-.05-.08-.1-.1-.15l-.15-.24a2.3 2.3 0 0 1-1.25-.72c-.14.77 0 1.59.5 2.29.07.1.14.21.24.31a5.44 5.44 0 0 0 2.25 1.54c.12.05.27.07.39.12l.37.07c.31.05.6.07.9.1.1 0 .2.02.27.05l.27.07a1.71 1.71 0 0 1 .54.24l.1.07.22.15c.07.04.14.12.22.19.12.1.22.24.34.36.76-1.73.68-2.62.56-3.47ZM7.72 5.18c-.24 0-2.96.33-4.3 1.49 1.46.7 1.12 1.15 2.03 2.55-1.1 1.52-.9 2.33-2.45 3.32 1.3.6 2.35.96 3.2 1.1l.42.08c.02 0 .07 0 .1.02.12.03.27.03.39.05.12 0 .24.03.37.03H8.16c.07 0 .15 0 .24-.03a5.85 5.85 0 0 0 1.5-.31c.22-.07.41-.2.6-.31A3.1 3.1 0 0 1 9.03 9.4a3.13 3.13 0 0 0-2.18 1.64 5.09 5.09 0 0 0-.59 2.17l-.12-.03c-.64-.12-1.37-.36-2.23-.72.62-.53.86-1.06 1.15-1.61.18-.36.37-.75.69-1.2l.05-.08c.34.36.66.65.95.92.2-.27.42-.53.69-.73a3.8 3.8 0 0 1 1.51-.7l.27-.04c.1-.2.25-.41.42-.6.12-.15.24-.27.39-.39a3 3 0 0 1 .7-.4l-.14-.08c-.02 0-.02-.02-.05-.02-.02-.03-.07-.03-.1-.05-.02 0-.04-.03-.07-.03l-.1-.02c-.02 0-.05 0-.07-.02l-.1-.03c-.02 0-.05 0-.07-.02-.03 0-.07 0-.1-.03H8.97l-.3.03h-.04c-.1.02-.2.02-.3.05h-.02l-.3.07c-.12.02-.24.07-.36.12-.69.29-1.28.67-1.86 1.27l-.05-.07c-.22-.34-.34-.62-.47-.87a2.73 2.73 0 0 0-1-1.3 9.57 9.57 0 0 1 3.33-.98l.14-.03c.03.53.1 1.04.2 1.47.42-.12.93-.19 1.4-.17.43 0 1.07.05 1.58.34l.25.15h.1c.07-.03.14-.05.22-.05h.05c.07-.03.14-.03.22-.03H12.34c.08 0 .15 0 .22.03h.08l.24.02-.07-.14-.08-.15c-.05-.1-.12-.17-.2-.26l-.21-.24c-.3-.27-.64-.5-.98-.7l-.44-.22-.37-.14c-.07-.03-.14-.05-.2-.05l-.04-.02c-.05-.03-.1-.03-.15-.05-.02 0-.02 0-.05-.03h-.02l-.22-.04H9.8l-.1-.03-.07-.02h-.05c-.05 0-.12-.03-.2-.03h-.07l-.17-.02h-.05l-.22-.02H8.26V5.1c0-.7.1-1.32.54-2.23.66.72 1.34.89 2 1.06.32.07.64.16.98.3l.07.03c-.34.39-.63.72-.78 1.06.03 0 .03 0 .05.03.15.07.32.14.46.24.42.21.79.48 1.06.77l.24.26.22.29.1.17.07.17.1.26c.49.2.98.58 1.12.9a3.1 3.1 0 0 0-.34-2.68 5.47 5.47 0 0 0-2-1.83l-.37-.17c-.12-.05-.24-.1-.34-.12-.32-.1-.61-.14-.9-.24l-.28-.07c-.1-.02-.17-.07-.27-.1-.1-.04-.2-.1-.31-.17-.08-.04-.15-.1-.2-.14l-.1-.07c-.07-.05-.12-.12-.2-.2-.07-.07-.11-.14-.19-.21L8.7 2a5.06 5.06 0 0 0-.97 3.18Z"/>
</symbol><symbol id="icon-twitter" viewBox="0 0 24 24">
  <path d="M8.72 19c6.6 0 10.2-5.4 10.2-10.07v-.44c.68-.5 1.33-1.1 1.77-1.84-.61.3-1.32.5-2.07.57a3.3 3.3 0 0 0 1.56-1.98c-.68.43-1.46.67-2.28.87A3.58 3.58 0 0 0 15.25 5c-2 0-3.57 1.61-3.57 3.53 0 .23.06.57.06.8A10.16 10.16 0 0 1 4.33 5.6c-.3.5-.51 1.11-.51 1.82 0 1.24.6 2.28 1.56 2.99-.58 0-1.12-.2-1.63-.44v.07a3.58 3.58 0 0 0 2.9 3.49c-.32.06-.62.13-.96.13-.24 0-.44 0-.68-.07a3.58 3.58 0 0 0 3.33 2.49 7.32 7.32 0 0 1-4.46 1.48c-.3 0-.57 0-.88-.07 1.8.9 3.7 1.51 5.72 1.51Z"/>
</symbol><symbol id="icon-youtube" viewBox="0 0 24 24">
  <path fill-rule="evenodd" d="M19.03 5.39c.77.22 1.39.85 1.6 1.64.37 1.45.37 4.47.37 4.47s0 3.02-.37 4.47c-.21.8-.82 1.43-1.6 1.64C17.64 18 12 18 12 18s-5.63 0-7.03-.39a2.3 2.3 0 0 1-1.6-1.64C3 14.52 3 11.5 3 11.5s0-3.02.37-4.47c.21-.8.82-1.43 1.6-1.64C6.36 5 12 5 12 5s5.63 0 7.03.39Zm-4.17 6.11-4.7 2.75v-5.5l4.7 2.75Z" clip-rule="evenodd"/>
</symbol><symbol id="logo" viewBox="0 0 229 81">
<path d="M0 10C0 4.47715 4.47715 0 10 0H219C224.523 0 229 4.47715 229 10V71C229 76.5229 224.523 81 219 81H10C4.47716 81 0 76.5229 0 71V10Z" fill="#00B336"/>
<path fill-rule="evenodd" clip-rule="evenodd" d="M64.8462 43.8783H85.439C85.8292 43.8739 89.0165 43.6163 89.0165 40.0275C89.0209 31.1908 82.1596 24 73.7287 24C65.3022 24 58.4452 31.1908 58.4452 40.0318C58.4452 40.1539 58.4501 40.4083 58.4539 40.6077L58.4539 40.6097C58.4564 40.7374 58.4584 40.8421 58.4584 40.8745C58.4452 50.9686 64.9602 56.3999 73.5796 56.9019C73.9917 56.9238 74.3951 56.9369 74.7897 56.9369C78.1042 56.9369 80.9013 56.0811 83.9396 54.1688C84.2509 53.9767 85.4653 53.169 86.706 51.5755C87.6925 50.3093 87.7802 48.4101 86.706 47.4234C85.1584 46.0001 83.5669 46.7685 82.1464 47.9735L82.1246 47.992C79.9036 49.8736 78.1729 51.3397 73.7374 51.3441C69.5417 51.3441 65.574 48.9602 64.6314 44.197C64.5963 44.0311 64.6928 43.8783 64.8462 43.8783ZM64.6182 37.9624C65.1926 33.3344 68.3887 29.2304 73.7199 29.2304C79.0512 29.2304 82.427 33.2515 82.9619 37.9624C82.9794 38.1326 82.8698 38.2942 82.7032 38.2942H64.8769C64.7103 38.2942 64.5963 38.137 64.6182 37.9624Z" fill="white"/>
<path d="M147.296 27.7678L159.533 51.8068C160.195 53.1079 159.901 54.6752 158.901 55.6445C158.893 55.6576 158.88 55.6663 158.866 55.6794C158.818 55.7231 158.77 55.7667 158.722 55.806C158.709 55.816 158.697 55.8255 158.684 55.835L158.656 55.8562C158.647 55.8629 158.638 55.8696 158.629 55.8764C158.616 55.8862 158.603 55.8961 158.59 55.9064C158.57 55.9233 158.55 55.9375 158.527 55.9532L158.507 55.9676C158.489 55.9785 158.473 55.9905 158.456 56.0025C158.447 56.0091 158.438 56.016 158.429 56.0224C158.421 56.0276 158.414 56.0326 158.406 56.0374C158.4 56.0419 158.394 56.0458 158.388 56.0494C158.38 56.0545 158.371 56.0589 158.362 56.0632L158.349 56.0697C158.344 56.0719 158.34 56.0742 158.336 56.0767C158.327 56.0811 158.319 56.0865 158.312 56.092C158.304 56.0974 158.296 56.1029 158.288 56.1073C158.278 56.1139 158.267 56.1199 158.256 56.1255C158.238 56.1346 158.219 56.1428 158.2 56.1509C158.121 56.1946 158.042 56.2339 157.959 56.2688C157.954 56.2711 157.949 56.2731 157.944 56.275C157.938 56.2771 157.932 56.2791 157.926 56.2811C157.916 56.2839 157.907 56.2869 157.897 56.2906C157.56 56.4173 157.214 56.4827 156.872 56.4827C155.793 56.4827 154.75 55.8715 154.206 54.8062L143.052 31.7452C143.028 31.6948 143.004 31.6423 142.979 31.5886C142.797 31.1949 142.584 30.7373 142.176 30.6144C142 30.562 141.742 30.5532 141.496 30.6275C141.099 30.7476 140.861 31.2801 140.761 31.5054C140.748 31.534 140.737 31.5577 140.729 31.5749L140.702 31.6273L140.685 31.6666L136.086 40.8962L135.459 42.2191C135.393 42.3894 135.507 42.5815 135.687 42.5815H144.087C145.591 42.5815 146.814 43.8607 146.814 45.4412C146.814 47.0173 145.591 48.3009 144.087 48.3009H132.837C132.692 48.3009 132.561 48.3882 132.495 48.5236L129.948 53.8413L129.496 54.7931C129.347 55.09 129.159 55.3476 128.94 55.5703C128.929 55.5812 128.918 55.591 128.907 55.6008C128.896 55.6106 128.885 55.6205 128.874 55.6314C128.826 55.6794 128.777 55.7274 128.725 55.7711C128.663 55.8235 128.598 55.8715 128.532 55.9195C128.523 55.9283 128.51 55.937 128.497 55.9457C127.576 56.5832 126.357 56.6748 125.327 56.0549C125.007 55.8628 124.744 55.6183 124.525 55.3345C124.503 55.3083 124.481 55.2821 124.463 55.2559C124.454 55.2428 124.446 55.2308 124.437 55.2188C124.428 55.2068 124.419 55.1948 124.411 55.1817C123.74 54.2299 123.604 52.9201 124.169 51.8068L124.187 51.7719C124.195 51.759 124.201 51.7446 124.207 51.7297C124.212 51.7192 124.217 51.7084 124.222 51.6976L136.397 27.7721C136.792 26.9732 137.335 26.2833 137.98 25.7376C139.054 24.8207 140.409 24.3012 141.851 24.3012C144.148 24.3012 146.235 25.6284 147.296 27.7678Z" fill="white"/>
<path d="M201.073 24.3187C199.026 24.31 197.233 25.5848 196.373 27.3356C194.547 31.0455 190.381 39.5935 187.751 44.99C186.398 47.7667 185.451 49.7094 185.439 49.7286C185.433 49.7393 185.425 49.753 185.417 49.7688C185.341 49.9086 185.171 50.222 184.856 50.222C184.527 50.222 184.334 49.8553 184.273 49.7243L183.183 47.4812L183.182 47.4782L183.18 47.4738C180.318 41.5827 175.918 32.5254 173.466 27.5452C172.392 25.3578 170.59 24.3143 168.643 24.3143H168.639C165.644 24.3143 163.22 26.8335 163.22 30.2608V53.2389C163.22 54.636 164.022 55.9283 165.254 56.3344C167.262 56.9893 168.985 55.2429 168.985 53.1778L168.564 30.7803C168.564 30.5489 168.845 30.466 168.95 30.6668L180.055 53.0512C181.086 55.1948 182.874 56.4741 184.856 56.4741C186.833 56.4741 188.622 55.1948 189.657 53.0512L200.766 30.6712C200.876 30.4616 201.165 30.5446 201.165 30.7891L200.74 53.3131C200.74 55.0944 202.077 56.5308 203.713 56.4741C205.291 56.4217 206.505 54.9111 206.505 53.1778V30.2695C206.51 26.8073 204.077 24.3318 201.073 24.3187Z" fill="white"/>
<path d="M56.6345 24.6724C55.1526 23.8691 53.3332 24.4803 52.5703 26.0346L41.6843 49.3751C41.43 49.8772 41.2108 50.2221 40.632 50.2221C40.0533 50.2221 39.8297 49.8772 39.5798 49.3751L28.6981 26.0302C27.9353 24.4759 26.1158 23.8691 24.6339 24.668C23.152 25.4714 22.5733 27.3793 23.3362 28.9292L35.178 52.9857C36.2346 55.1381 38.3259 56.4741 40.6364 56.4741C42.9425 56.4741 45.0338 55.1381 46.0948 52.9857L57.9366 28.9292C58.6951 27.3837 58.112 25.4758 56.6345 24.6724Z" fill="white"/>
<path fill-rule="evenodd" clip-rule="evenodd" d="M119.316 43.8783H98.7233C98.5654 43.8783 98.469 44.0311 98.5041 44.197C99.4467 48.9602 103.414 51.3441 107.61 51.3441C112.046 51.3397 113.776 49.8736 115.997 47.992L116.019 47.9735C117.44 46.7685 119.031 46.0001 120.579 47.4234C121.653 48.4101 121.565 50.3093 120.579 51.5755C119.338 53.169 118.124 53.9767 117.812 54.1688C114.774 56.0811 111.977 56.9369 108.662 56.9369C108.268 56.9369 107.864 56.9238 107.452 56.9019C98.8329 56.3999 92.3179 50.9686 92.331 40.8745C92.331 40.842 92.329 40.7367 92.3266 40.6085C92.3228 40.409 92.3179 40.1541 92.3179 40.0318C92.3179 31.1908 99.1748 24 107.606 24C116.032 24 122.894 31.1908 122.894 40.0275C122.894 43.6163 119.706 43.8739 119.316 43.8783ZM107.593 29.2304C102.261 29.2304 99.0652 33.3344 98.4909 37.9624C98.469 38.137 98.583 38.2942 98.7452 38.2942H116.576C116.743 38.2942 116.852 38.1326 116.835 37.9624C116.3 33.2515 112.924 29.2304 107.593 29.2304Z" fill="white"/>
</symbol></svg>